<?xml version="1.0" encoding="utf-8"?>
<!-- Generator: Adobe Illustrator 26.1.0, SVG Export Plug-In . SVG Version: 6.00 Build 0)  -->
<svg version="1.1" id="Layer_1" xmlns="http://www.w3.org/2000/svg" xmlns:xlink="http://www.w3.org/1999/xlink" x="0px" y="0px"
	 viewBox="0 0 337 220.24" style="enable-background:new 0 0 337 220.24;" xml:space="preserve">
<style type="text/css">
	.st0{fill:#CA9E67;}
	.st1{fill:#FFFFFF;}
	.st2{fill:#13110C;}
	.st3{fill:#EA0029;}
	.st4{fill:#E30613;}
</style>
<g>
	<path class="st0" d="M205.02-94.25l-0.98,1.13c0.66,0.14,1.17,0.31,1.54,0.46l0.51-0.59c0.98-1.34,1.5-2.86,1.5-4.43v-4.18
		c0-2.42-1.22-4.62-3.2-6.2c1.33,1.46,2.13,3.25,2.13,5.19v4.18C206.51-97.11,206-95.6,205.02-94.25"/>
	<path class="st0" d="M191.28-90.81c0.01,0,0.01-0.01,0.02-0.01c-0.02-0.01-0.03-0.01-0.04-0.01L191.28-90.81z"/>
	<path class="st0" d="M189.92-91.3c-0.62-0.28-1.25-0.59-1.74-0.85c0.05,0.05,0.09,0.11,0.15,0.15c0.72,0.69,1.57,1.23,2.49,1.64
		c0.17-0.18,0.35-0.34,0.47-0.46c-0.26-0.05-0.59-0.17-0.95-0.31C190.19-91.18,190.06-91.24,189.92-91.3"/>
	<path class="st0" d="M224.32-97.7v-2.96c0-1.76,1.58-3.19,3.52-3.19c0.3,0,0.59,0.04,0.87,0.11c-0.42-0.65-1.25-1.31-2.72-1.03
		c-1.56,0.33-2.73,1.59-2.73,3.11v2.96l0.49,4.38h-8.8l1.08,1.01h8.78L224.32-97.7z"/>
	<path class="st0" d="M250.91-101.5c0-0.66,0.16-1.55,0.89-2.03c0.8-0.52,1.71-0.59,4.08-0.33c2.34,0.26,4.22,0.5,5.79,0.7
		c0.84,0.11,1.59,0.21,2.28,0.29l0.66,0.08v-7.96l-1.06-1v7.95l-0.66-0.08c-0.69-0.08-1.44-0.18-2.28-0.29
		c-1.57-0.2-3.46-0.44-5.79-0.7c-2.37-0.25-3.28-0.18-4.08,0.34c-0.73,0.48-0.89,1.37-0.89,2.03v7.36c0.34-0.15,0.7-0.27,1.06-0.37
		V-101.5z"/>
	<path class="st0" d="M86.7-94.25l-0.98,1.13c0.66,0.14,1.17,0.31,1.54,0.46l0.51-0.59c0.98-1.34,1.49-2.86,1.49-4.43v-4.18
		c0-2.42-1.22-4.62-3.19-6.2c1.33,1.46,2.13,3.25,2.13,5.19v4.18C88.2-97.11,87.69-95.6,86.7-94.25"/>
	<path class="st0" d="M72.97-90.81c0.01,0,0.01-0.01,0.02-0.01c-0.01-0.01-0.03-0.01-0.04-0.01L72.97-90.81z"/>
	<path class="st0" d="M71.61-91.3c-0.62-0.28-1.25-0.59-1.74-0.85c0.05,0.05,0.1,0.11,0.15,0.15c0.72,0.69,1.57,1.23,2.49,1.64
		c0.17-0.18,0.34-0.34,0.47-0.46c-0.26-0.05-0.59-0.17-0.94-0.31C71.88-91.18,71.75-91.24,71.61-91.3"/>
	<path class="st0" d="M106.01-97.7v-2.96c0-1.76,1.58-3.19,3.52-3.19c0.3,0,0.59,0.04,0.87,0.11c-0.42-0.65-1.24-1.31-2.72-1.03
		c-1.56,0.33-2.72,1.59-2.72,3.11v2.96l0.49,4.38h-8.81l1.09,1.01h8.78L106.01-97.7z"/>
	<path class="st0" d="M146.42-84.92c-0.63-0.18-0.84-0.96-0.84-2.01v-13.73c0-1.19,0.34-3.19,2.62-3.19c0.03,0,0.06,0.01,0.09,0.01
		c-0.29-0.74-1.13-1.17-2.12-0.85c-1.41,0.48-1.66,2.03-1.66,3.03v14.64C144.52-86.01,144.98-84.64,146.42-84.92"/>
	<path class="st0" d="M235.81-107.95c1.4,1.52,2.24,3.39,2.24,5.42v29.05c0,5.01-5.06,9.09-11.28,9.09c-0.45,0-0.89-0.03-1.33-0.07
		c-0.08-0.01-0.16-0.02-0.25-0.03c-0.36-0.04-0.71-0.09-1.06-0.16c-0.08-0.01-0.16-0.03-0.24-0.05c-0.29-0.06-0.59-0.13-0.87-0.21
		c-0.17-0.05-0.34-0.1-0.52-0.15c-0.08-0.03-0.15-0.05-0.23-0.08c-1.04-0.34-1.98-0.77-2.76-1.22c2.06,1.83,5.02,2.99,8.32,2.99
		c6.22,0,11.27-4.08,11.27-9.1v-29.05C239.11-104.03,237.85-106.31,235.81-107.95"/>
	<path class="st0" d="M210.07-89.06c1.34,1.49,2.09,3.34,2.09,5.27v10.3c0,5.01-5.06,9.09-11.28,9.09c-0.03,0-0.06,0-0.1-0.01
		l0,0.01c-0.12,0-0.23-0.01-0.35-0.02c-0.27-0.01-0.54-0.02-0.81-0.04c-0.28-0.03-0.55-0.06-0.82-0.1c-0.1-0.01-0.19-0.03-0.28-0.04
		c-1.85-0.31-3.47-0.95-4.75-1.64c2.06,1.75,4.95,2.85,8.18,2.85c6.22,0,11.27-4.08,11.27-9.09v-10.3c0-2.08-0.85-4.07-2.4-5.62
		C210.58-88.63,210.33-88.86,210.07-89.06"/>
	<path class="st0" d="M199.6-72.22c-0.72-0.33-1.17-1.28-1.17-2.53c0-0.01,0-0.02-0.01-0.03v-7.14c0-1.76,1.58-3.19,3.52-3.19
		c0.32,0,0.62,0.04,0.91,0.12c-0.34-0.54-1.22-1.37-2.92-0.99c-1.48,0.38-2.58,1.6-2.58,3.06v8.42l0.01,0
		C197.39-73.26,198.34-72.38,199.6-72.22"/>
	<path class="st0" d="M291.95-68.6v-32.93c0-2.5-1.26-4.78-3.3-6.42c1.4,1.52,2.24,3.39,2.24,5.42v32.93l0.53,4.2h-8.69l0.98,1.01
		h8.78L291.95-68.6z"/>
	<path class="st0" d="M117.5-107.95c1.4,1.52,2.24,3.39,2.24,5.42v29.05c0,5.01-5.06,9.09-11.27,9.09c-0.45,0-0.9-0.03-1.33-0.07
		c-0.08-0.01-0.16-0.02-0.25-0.03c-0.36-0.04-0.71-0.09-1.06-0.16c-0.08-0.01-0.16-0.03-0.24-0.05c-0.29-0.06-0.58-0.13-0.87-0.21
		c-0.18-0.05-0.35-0.1-0.52-0.15c-0.08-0.03-0.15-0.05-0.23-0.08c-1.04-0.34-1.98-0.77-2.76-1.22c2.06,1.83,5.02,2.99,8.32,2.99
		c6.22,0,11.28-4.08,11.28-9.1v-29.05C120.8-104.03,119.54-106.31,117.5-107.95"/>
	<path class="st0" d="M91.75-89.06c1.34,1.49,2.09,3.34,2.09,5.27v10.3c0,5.01-5.06,9.09-11.28,9.09c-0.03,0-0.06,0-0.1-0.01v0.01
		c-0.12,0-0.24-0.01-0.36-0.02c-0.27-0.01-0.54-0.02-0.81-0.04c-0.28-0.03-0.55-0.06-0.83-0.1c-0.1-0.01-0.19-0.03-0.28-0.04
		c-1.85-0.31-3.47-0.95-4.75-1.64c2.05,1.75,4.96,2.85,8.18,2.85c6.22,0,11.28-4.08,11.28-9.09v-10.3c0-2.08-0.85-4.07-2.4-5.62
		C92.27-88.63,92.01-88.86,91.75-89.06"/>
	<path class="st0" d="M81.29-72.22c-0.72-0.33-1.17-1.28-1.17-2.53c0-0.01,0-0.02,0-0.03v-7.14c0-1.76,1.58-3.19,3.52-3.19
		c0.32,0,0.62,0.04,0.91,0.12c-0.34-0.54-1.22-1.37-2.92-0.99c-1.48,0.38-2.57,1.6-2.57,3.06v8.42l0,0
		C79.07-73.26,80.02-72.38,81.29-72.22"/>
	<path class="st0" d="M184.48-84.22c-0.05-6.44-1.5-8.76-4.46-12.91l-0.96-1.36c-0.38-0.55-0.76-1.07-1.13-1.56
		c-1.63-2.22-2.55-3.32-2.77-5.46l0.99-5.11l-0.96-1.36l-1.1,5.46c0.22,2.14,1.14,3.24,2.77,5.46c0.37,0.5,0.75,1.02,1.13,1.57
		l0.96,1.36c2.95,4.15,4.4,6.47,4.45,12.92h0l0.02,0.38v11.36c0,5.01-5.06,9.09-11.28,9.09c-0.45,0-0.89-0.03-1.33-0.07
		c-0.08-0.01-0.17-0.02-0.25-0.03c-0.36-0.04-0.71-0.1-1.06-0.16c-0.08-0.01-0.16-0.03-0.24-0.05c-0.3-0.06-0.59-0.13-0.87-0.21
		c-0.18-0.05-0.35-0.1-0.52-0.16c-0.08-0.03-0.16-0.05-0.23-0.08c-1.04-0.35-1.98-0.77-2.76-1.22c2.06,1.83,5.02,2.99,8.32,2.99
		c6.22,0,11.28-4.08,11.28-9.1v-11.36L184.48-84.22L184.48-84.22z"/>
	<path class="st0" d="M155.39-108.38c1.35,1.54,2.12,3.54,2.12,5.84v16.37c0,5.27-4.36,9.09-10.38,9.09c-0.4,0-0.78-0.02-1.16-0.05
		c-0.28-0.02-0.55-0.06-0.81-0.09c-0.04-0.01-0.09-0.01-0.13-0.02c-1.86-0.28-3.28-0.88-4.34-1.46c1.84,1.65,4.46,2.64,7.51,2.64
		c6.01,0,10.38-3.83,10.38-9.09v-16.38C158.58-104.38,157.39-106.77,155.39-108.38"/>
	<path class="st0" d="M279.27-104.84c-0.03,0-0.07,0.01-0.1,0.01c-0.18,0.02-0.37,0.06-0.57,0.11c-1.44,0.4-2.5,1.6-2.5,3.04v31.88
		l0.48,4.39h-8.68l0.96,1.01h8.78l-0.49-4.39v-31.88c0-1.76,1.58-3.19,3.52-3.19c0.28,0,0.54,0.04,0.8,0.09
		C281.07-104.35,280.33-104.89,279.27-104.84"/>
	<path class="st0" d="M262.41-91.18c1.44,1.6,2.23,3.66,2.23,5.87v11.82c0,5.01-5.05,9.09-11.27,9.09c-0.38,0-0.75-0.02-1.14-0.05
		l-0.04,0c-0.69-0.06-1.4-0.17-2.13-0.35c-0.04-0.01-0.08-0.02-0.12-0.03c-0.28-0.07-0.56-0.16-0.85-0.25
		c-0.09-0.03-0.18-0.06-0.27-0.09c-0.87-0.31-1.8-0.72-2.81-1.3c2.07,1.89,5.07,3.08,8.42,3.08c6.22,0,11.27-4.07,11.27-9.09V-84.3
		c0-2.47-0.98-4.75-2.75-6.42C262.79-90.87,262.6-91.03,262.41-91.18"/>
	<path class="st0" d="M135.78-73.75c-2-0.92-3.2-3.44-3.2-6.25v0v-20.66c0-1.19,0.34-3.19,2.62-3.19c0.04,0,0.06,0.01,0.1,0.01
		c-0.3-0.75-1.15-1.18-2.14-0.85c-1.39,0.5-1.64,2.03-1.64,3.02v20.67C131.52-77.22,132.77-74.52,135.78-73.75"/>
	<path class="st0" d="M252.09-72.22c-0.72-0.33-1.17-1.28-1.17-2.53l0-8.7c0.01-1.76,1.58-3.18,3.52-3.18
		c0.25,0,0.48,0.03,0.71,0.07c-0.54-0.78-1.74-1.39-3.24-0.78c-1.2,0.51-2.04,1.6-2.05,2.88l0,9.9l0,0.01
		C249.85-73.28,250.81-72.38,252.09-72.22"/>
	<path class="st1" d="M84.05-93.08c0.24-0.25,0.47-0.49,0.7-0.72l1.05-1.21c0.98-1.34,1.5-2.86,1.5-4.43v-4.18
		c0-4.83-4.87-8.76-10.86-8.76c-5.99,0-10.86,3.93-10.86,8.76v4.18c0,2.14,0.87,4.16,2.46,5.68c1.51,1.45,3.53,2.31,5.79,2.49
		l-1.63,1.79c-1.19,1.47-1.82,3.17-1.82,4.94v10.3c0,5.01,5.06,9.09,11.27,9.09c6.22,0,11.28-4.08,11.28-9.09v-10.3
		c0-2.08-0.85-4.07-2.4-5.62C88.88-91.81,86.62-92.82,84.05-93.08 M73.39-100.28v-2.51c0-1.76,1.28-3.05,3.05-3.05
		c1.76,0,3.04,1.28,3.04,3.05v2.51c0,1.77-1.28,3.05-3.04,3.05C74.67-97.24,73.39-98.51,73.39-100.28 M85.17-75.11
		c0,1.76-1.58,3.19-3.52,3.19c-1.94,0-3.52-1.43-3.52-3.19v-8.57c0-1.76,1.58-3.19,3.52-3.19c1.94,0,3.52,1.43,3.52,3.19V-75.11z"/>
	<path class="st1" d="M107.55-112.39c-6.22,0-11.28,4.08-11.28,9.09l0,3.94l-0.54,4.28h8.78l-0.49-4.38v-2.96
		c0-1.76,1.58-3.19,3.52-3.19c1.94,0,3.52,1.43,3.52,3.19v27.31c0,1.76-1.58,3.2-3.52,3.2c-1.94,0-3.52-1.44-3.52-3.2l0-4.98
		l0.5-4.45h-8.78l0.53,4.21v6.09c0,5.01,5.06,9.09,11.28,9.09c6.22,0,11.27-4.08,11.27-9.09v-29.05
		C118.83-108.31,113.77-112.39,107.55-112.39"/>
	<path class="st1" d="M202.35-93.08c0.24-0.25,0.48-0.5,0.7-0.73l1.01-1.16c1-1.35,1.54-2.89,1.54-4.48v-4.18
		c0-4.83-4.87-8.76-10.86-8.76c-5.99,0-10.86,3.93-10.86,8.76v4.18c0,2.14,0.87,4.16,2.46,5.68c1.51,1.45,3.53,2.31,5.79,2.48
		l-1.63,1.79c-1.19,1.47-1.82,3.17-1.82,4.94v10.3c0,5.01,5.06,9.09,11.27,9.09c6.22,0,11.28-4.08,11.28-9.09v-10.3
		c0-2.08-0.85-4.07-2.4-5.62C207.18-91.81,204.92-92.82,202.35-93.08 M191.69-100.28v-2.51c0-1.76,1.28-3.05,3.04-3.05
		c1.77,0,3.05,1.28,3.05,3.05v2.51c0,1.77-1.28,3.05-3.05,3.05C192.97-97.24,191.69-98.51,191.69-100.28 M203.47-75.11
		c0,1.76-1.58,3.19-3.52,3.19c-1.94,0-3.51-1.43-3.51-3.19v-8.57c0-1.76,1.58-3.19,3.51-3.19c1.94,0,3.52,1.43,3.52,3.19V-75.11z"/>
	<path class="st1" d="M225.86-112.39c-6.22,0-11.28,4.08-11.28,9.09l0,3.94l-0.54,4.28h8.78l-0.49-4.38v-2.96
		c0-1.76,1.58-3.19,3.52-3.19c1.94,0,3.52,1.43,3.52,3.19v27.31c0,1.76-1.58,3.2-3.52,3.2c-1.94,0-3.52-1.44-3.52-3.2l0-4.98
		l0.49-4.45h-8.78l0.53,4.21v6.09c0,5.01,5.06,9.09,11.28,9.09c6.22,0,11.27-4.08,11.27-9.09v-29.05
		C237.13-108.31,232.08-112.39,225.86-112.39"/>
	<path class="st1" d="M146.5-112.39c-3,0-5.35,0.98-6.86,2.85c-1.44-1.9-3.69-2.85-6.72-2.85c-5.94,0-10.08,3.74-10.08,9.09v22.56
		c0,7.53,4.1,14.74,15.6,14.74l4.17-0.01l4.81,0.85v-8.46l-4.88,0.77h-2.6c-6.2,0-9.34-2.45-9.34-8.92v-20.67
		c0-1.19,0.34-3.19,2.62-3.19c2.28,0,2.62,2,2.62,3.19v15.51c0,5.27,4.36,9.09,10.38,9.09c6.01,0,10.38-3.82,10.38-9.09v-16.38
		C156.6-108.65,152.45-112.39,146.5-112.39 M148.84-87.79c0,1.19-0.34,3.19-2.62,3.19c-2.28,0-2.62-2-2.62-3.19v-14.64
		c0-1.19,0.34-3.19,2.62-3.19c2.28,0,2.62,2,2.62,3.19V-87.79z"/>
	<path class="st1" d="M182.5-85.98c-0.05-6.44-1.5-8.77-4.46-12.92l-0.96-1.36c-0.38-0.55-0.76-1.07-1.13-1.56
		c-1.63-2.22-2.55-3.32-2.77-5.46l0.99-5.1h-8.86v3.41c0,5.73,2.23,8.78,4.39,11.73c0.34,0.46,0.68,0.92,1.03,1.42l1,1.42
		c2.44,3.43,3.02,4.24,3.02,8.8v10.49c0,1.76-1.58,3.19-3.51,3.19c-1.94,0-3.52-1.43-3.52-3.19l0-4.98l0.49-4.45h-8.79l0.54,4.21
		v6.09c0,5.01,5.05,9.09,11.27,9.09c6.22,0,11.28-4.08,11.28-9.09v-11.36L182.5-85.98L182.5-85.98z"/>
	<path class="st1" d="M252.41-95.16c-1.25,0.08-2.42,0.35-3.48,0.8v-8.91c0-0.66,0.16-1.55,0.89-2.03c0.8-0.52,1.71-0.59,4.08-0.34
		c2.34,0.26,4.22,0.5,5.8,0.7c0.84,0.11,1.59,0.21,2.28,0.29l0.66,0.07v-7.97l-0.71,0.15c-1.51,0.31-2.59,0.44-3.84,0.49
		c-0.73-0.01-1.44-0.1-2.27-0.2c-1.15-0.14-2.45-0.3-4.2-0.3c-6.64,0-10.45,2.96-10.45,8.11l0,30.03c0,5.01,5.06,9.09,11.28,9.09
		c6.22,0,11.27-4.08,11.27-9.09v-11.82c0-2.47-0.98-4.75-2.76-6.42C259.5-93.86,256.84-95.45,252.41-95.16 M255.97-75.11
		c0,1.76-1.58,3.19-3.52,3.19c-1.94,0-3.52-1.43-3.52-3.19l0-10.1c0.01-1.75,1.58-3.18,3.52-3.18c1.94,0,3.52,1.43,3.52,3.19V-75.11
		z"/>
	<path class="st1" d="M290.5-66.17l-0.53-4.2v-32.92c0-5.02-5.06-9.1-11.28-9.1c-6.22,0-11.28,4.08-11.28,9.1l0,32.85l-0.54,4.27
		h8.78l-0.48-4.39v-31.88c0-1.76,1.58-3.19,3.52-3.19c1.94,0,3.52,1.43,3.52,3.19l0,31.82l-0.49,4.45H290.5z"/>
	<path class="st0" d="M285.07-100.44v29.5l-0.44,3.43h-1.01l0.46-3.43v-29.5c0-1.17,0.05-2.65-0.7-4.09
		C284.46-103.52,285.07-102.82,285.07-100.44 M279.19-110.72c-4.79,0.01-9.88,3.03-9.88,8.6v31.18l-0.46,3.43h1.01l0.44-3.43v-31.18
		c0-4.92,4.58-7.71,8.9-7.73c0,0,2.6-0.05,5.06,0.52C282.86-110.33,280.69-110.72,279.19-110.72 M217.45-99.23v-2.89
		c0-4.92,4.58-7.71,8.89-7.73c0,0,2.6-0.05,5.06,0.52c-1.39-0.99-3.56-1.38-5.06-1.38c-4.79,0.01-9.88,3.03-9.88,8.6v2.89
		l-0.22,2.53h0.97L217.45-99.23z M217.45-74.27v-5.81l-0.2-1.93h3.42l0.11-0.87h-3.62h-0.96l0.26,2.8v5.81
		c0,3.84,2.64,6.16,5.62,6.99C219.98-68.27,217.45-69.95,217.45-74.27 M229.94-105.72c0.86,0.72,1.3,1.87,1.3,3.49v27.58
		c0,2.69-2.36,4.26-4.58,4.37c-1.28,0.11-3.09-0.24-3.77-0.75c0.73,1.12,2.28,1.69,3.88,1.68c2.68-0.14,5.46-2,5.46-5.3v-27.58
		C232.23-103.99,231.04-105.31,229.94-105.72 M256.52-88.27c0.85,0.71,1.29,1.87,1.29,3.49v10.13c0,2.69-2.35,4.26-4.58,4.37
		c-1.28,0.11-3.08-0.24-3.77-0.75c0.73,1.12,2.29,1.69,3.9,1.68c2.68-0.14,5.44-2,5.44-5.3v-10.13
		C258.81-86.55,257.62-87.87,256.52-88.27 M256.05-110.38c-1.25-0.15-2.68-0.33-4.63-0.33c-5.09,0-8.37,2.72-8.37,6.92v29.51
		c0,3.84,2.64,6.16,5.62,6.99c-2.09-0.99-4.63-2.67-4.63-6.99v-29.51c0-3.66,2.83-5.93,7.38-5.93c1.89,0,3.28,0.17,4.51,0.31
		c0.95,0.11,1.8,0.19,2.67,0.18l-0.04,0.03h2.19v-0.16v-0.31v-0.69c-0.54,0.07-1.08,0.12-1.52,0.15
		C258.18-110.12,257.19-110.24,256.05-110.38 M257.53-92.28c-2.47-1.32-6.29-1.27-8.6-0.17v1.18
		C251.06-92.59,254.81-93.01,257.53-92.28 M162.82-74.27v-5.81l0,0l-0.2-1.93h3.42l0.11-0.87h-3.61h-0.96l0.26,2.8h0v5.81
		c0,3.84,2.63,6.16,5.62,6.99C165.35-68.27,162.82-69.95,162.82-74.27 M176.66-86.54v11.89c0,2.69-2.36,4.26-4.58,4.37
		c-1.28,0.11-3.08-0.24-3.77-0.75c0.74,1.12,2.27,1.69,3.88,1.68c2.67-0.14,5.46-2,5.46-5.3v-11.89c0-3.74-1.29-5.03-2.57-6.4
		C176.53-90.54,176.66-89.14,176.66-86.54 M168.35-107.97v-1.97h3.29l0.27-0.87h-3.56h-0.66h-0.46v2.28c0,2.59,0.56,5.37,2.42,7.74
		C168.6-103.3,168.35-104.33,168.35-107.97 M191.56-74.27v-10.25c0-2.2,1.88-5.52,4.46-6.98c-3.16,0.91-5.45,3.92-5.45,6.98v10.25
		c0,3.84,2.63,6.16,5.62,6.99C194.09-68.27,191.56-69.95,191.56-74.27 M186.75-99.47v-3.04c0-5.39,5.36-8.97,12.59-6.82
		c-4.14-3.22-13.58-1.25-13.58,6.82v3.04c0,3.08,1.54,4.99,3.49,5.58C187.76-94.86,186.75-96.27,186.75-99.47 M204.05-86.8
		c0.86,0.72,1.3,1.87,1.3,3.49v8.65c0,2.69-2.36,4.26-4.58,4.37c-1.28,0.11-3.08-0.24-3.77-0.75c0.73,1.12,2.29,1.69,3.9,1.68
		c2.67-0.14,5.44-2,5.44-5.3v-8.65C206.34-85.07,205.15-86.39,204.05-86.8 M200.64-100.08v-2.85c0-1.77-1.19-3.09-2.29-3.49
		c0.85,0.71,1.3,1.88,1.3,3.49v2.85c0,2.31-1.73,3.78-3.63,4.23c-1.46,0.34-3.23,0.15-3.91-0.36c0.61,0.98,2.26,1.55,4.08,1.31
		C198.52-95.39,200.64-97.18,200.64-100.08 M99.14-99.23v-2.89c0-4.92,4.58-7.71,8.89-7.73c0,0,2.6-0.05,5.06,0.52
		c-1.38-0.99-3.56-1.38-5.06-1.38c-4.79,0.01-9.88,3.03-9.88,8.6v2.89l-0.22,2.53h0.97L99.14-99.23z M99.14-74.27v-5.81l-0.2-1.93
		h3.42l0.1-0.87h-3.62h-0.96l0.26,2.8v5.81c0,3.84,2.64,6.16,5.62,6.99C101.68-68.27,99.14-69.95,99.14-74.27 M111.64-105.72
		c0.86,0.72,1.3,1.87,1.3,3.49v27.58c0,2.69-2.36,4.26-4.58,4.37c-1.28,0.11-3.08-0.24-3.77-0.75c0.73,1.12,2.27,1.69,3.88,1.68
		c2.67-0.14,5.46-2,5.46-5.3v-27.58C113.92-103.99,112.73-105.31,111.64-105.72 M73.25-74.27v-10.25c0-2.2,1.88-5.52,4.46-6.98
		c-3.16,0.91-5.45,3.92-5.45,6.98v10.25c0,3.84,2.64,6.16,5.62,6.99C75.79-68.27,73.25-69.95,73.25-74.27 M68.44-99.47v-3.04
		c0-5.39,5.36-8.97,12.59-6.82c-4.14-3.22-13.58-1.25-13.58,6.82v3.04c0,3.08,1.54,4.99,3.49,5.58
		C69.46-94.86,68.44-96.27,68.44-99.47 M85.75-86.8c0.85,0.72,1.3,1.87,1.3,3.49v8.65c0,2.69-2.36,4.26-4.58,4.37
		c-1.28,0.11-3.09-0.24-3.77-0.75c0.73,1.12,2.29,1.69,3.9,1.68c2.68-0.14,5.44-2,5.44-5.3v-8.65
		C88.03-85.07,86.84-86.39,85.75-86.8 M82.34-100.08v-2.85c0-1.77-1.2-3.09-2.29-3.49c0.86,0.71,1.3,1.88,1.3,3.49v2.85
		c0,2.31-1.74,3.78-3.63,4.23c-1.46,0.34-3.22,0.15-3.91-0.36c0.61,0.98,2.26,1.55,4.08,1.31C80.22-95.39,82.34-97.18,82.34-100.08
		 M137.71-87.42c0,3.07,1.39,5.17,2.99,6.12c-1.34-1.17-2-3.65-2-6.12v-15.06c0-1.77-1.19-3.09-2.29-3.49
		c0.86,0.71,1.3,1.87,1.3,3.49V-87.42z M136.56-71.54c1.97,1.29,6.22,1.3,6.22,1.3l2.92-0.41v-0.93l-3,0.47
		C142.69-71.12,138.76-71.05,136.56-71.54 M149.39-106.1c0.86,0.71,1.3,1.87,1.3,3.49v15c0,4.46-4.5,5.05-6.15,4.07
		c1.74,1.76,7.14,1.26,7.14-4.07v-15C151.68-104.38,150.49-105.7,149.39-106.1 M128.68-108.67c2.19-1.44,5.28-1.83,7.73-1.08
		c-2.67-1.47-5.99-1.22-8.36,0.34c-2.02,1.33-3.33,3.68-3.33,5.88v23.57c0,4.91,2.06,9.18,7.28,10.97
		c-4.1-1.89-6.29-6.13-6.29-10.97v-23.35C125.72-105.5,126.87-107.48,128.68-108.67 M142.66-108.67c2.19-1.44,5.28-1.83,7.72-1.08
		c-2.66-1.47-5.99-1.22-8.36,0.34c-0.49,0.32-0.94,0.71-1.34,1.13c0.26,0.32,0.43,0.58,0.59,0.86
		C141.68-107.89,142.13-108.32,142.66-108.67"/>
	<g>
		<g>
			<path class="st0" d="M218.34-57.29l0.4,2.07v6l-2.65-6.49c-0.4-0.96-1.34-1.58-2.38-1.58h-2.46l0.29,2.07l0.01,14.61l-0.29,2.21
				h4.6l-0.22-2.12v-6.03l2.65,6.57c0.4,0.95,1.34,1.58,2.38,1.58h2.48l-0.32-2.12l-0.01-14.6l0.33-2.16H218.34z"/>
			<path class="st0" d="M125.84-57.63l0.35,4.09h5.2l-4.38,9.47c-0.72,1.58-1.1,3.32-1.1,5.05v0.62l7.85-0.01l2.26,0.35v-4.09h-5.48
				l4.51-9.55c0.9-2.09,0.97-3.32,0.97-4.96v-0.62l-7.86,0.01L125.84-57.63z"/>
			<path class="st0" d="M159.83-57.29h-5.82l0.58,2.15v0.36h-0.06l0.06,0.04v14.08l-0.57,2.26h5.8c3.37,0,5.38-2.1,5.38-5.61v-7.66
				C165.21-55.2,163.2-57.29,159.83-57.29z M158.76-53.55h0.86c1.08,0,1.47,1,1.47,1.86v7.66c0,0.86-0.39,1.86-1.47,1.86h-0.86
				V-53.55z"/>
			<polygon class="st0" points="144.63,-42.16 144.63,-45.96 149.16,-45.98 149.16,-49.72 144.63,-49.72 144.63,-53.51 
				150.21,-53.55 150.56,-57.63 148.33,-57.29 140.03,-57.29 140.47,-55.17 140.47,-47.22 140.47,-47.22 140.47,-40.65 
				140.03,-38.41 148.24,-38.42 150.56,-38.06 150.19,-42.16 			"/>
			<path class="st0" d="M183.33-57.63l0.35,4.09h5.19l-4.37,9.47c-0.73,1.58-1.11,3.32-1.11,5.05v0.62l7.85-0.01l2.27,0.35v-4.09
				h-5.48l4.51-9.55c0.9-2.09,0.97-3.32,0.97-4.96v-0.62l-7.86,0.01L183.33-57.63z"/>
			<polygon class="st0" points="202.11,-42.16 202.11,-45.96 206.65,-45.98 206.65,-49.72 202.11,-49.72 202.11,-53.51 
				207.7,-53.55 208.05,-57.63 205.83,-57.29 197.52,-57.29 197.95,-55.17 197.97,-47.22 197.95,-47.22 197.97,-40.65 
				197.53,-38.41 205.72,-38.42 208.06,-38.06 207.69,-42.16 			"/>
			<path class="st0" d="M176.2-57.29h-1.84h-0.34h-2.08l-3.17,14.64h-0.01l0.01,0l-0.41,1.88l-1.02,2.37h5.01l0.05-2.01l0.18-1h2.97
				l0.19,0.89v2.12h5.06l-1-2.26L176.2-57.29z M173.24-45.01l0.83-4.56l0.83,4.56H173.24z"/>
			<polygon class="st0" points="231.89,-55.14 232.21,-57.29 227.43,-57.29 227.75,-55.22 227.75,-40.57 227.43,-38.41 
				232.21,-38.41 231.9,-40.48 			"/>
		</g>
		<g>
			<path class="st1" d="M219.38-45.16l-0.19-1.38l-3.64-8.93c-0.31-0.73-1.02-1.2-1.82-1.2h-1.75l0.2,1.45v14.69l-0.2,1.5h3.2
				l-0.15-1.5v-10.04l0.21,1.35l3.63,8.99c0.31,0.73,1.02,1.2,1.81,1.2h1.77l-0.22-1.5v-14.69l0.22-1.45h-3.34l0.27,1.45V-45.16z"/>
			<path class="st1" d="M129.58-41.54h5.83v2.75l-1.54-0.24h-7.33c0-1.65,0.35-3.28,1.05-4.78l4.4-9.54l1.46-0.81h-6.67l-0.23-2.74
				l1.54,0.23h7.33c0,1.65-0.07,2.76-0.91,4.71L129.58-41.54z"/>
			<path class="st1" d="M159.84-56.67h-5.01l0.4,1.45v14.63l-0.4,1.56h5.01c2.71,0,4.77-1.48,4.77-4.99v-7.66
				C164.61-55.19,162.55-56.67,159.84-56.67 M161.72-44.02c0,1.44-0.81,2.48-2.09,2.48h-1.48v-11.94l-1.23-0.69h2.71
				c1.28,0,2.09,1.04,2.09,2.48V-44.02z"/>
			<polygon class="st1" points="149.64,-41.54 149.9,-38.79 148.35,-39.03 140.81,-39.03 141.1,-40.53 141.1,-55.22 140.81,-56.67 
				148.35,-56.67 149.9,-56.9 149.66,-54.17 142.87,-54.17 144.02,-53.51 144.02,-49.11 148.56,-49.11 148.56,-46.6 142.87,-46.6 
				144.02,-45.96 144.02,-41.54 			"/>
			<path class="st1" d="M187.07-41.54h5.84v2.75l-1.55-0.24h-7.33c0-1.65,0.36-3.28,1.05-4.78l4.4-9.54l1.46-0.81h-6.67l-0.24-2.74
				l1.55,0.23h7.33c0,1.65-0.08,2.76-0.91,4.71L187.07-41.54z"/>
			<polygon class="st1" points="207.14,-41.54 207.39,-38.79 205.84,-39.03 198.3,-39.03 198.59,-40.53 198.59,-55.22 198.3,-56.67 
				205.84,-56.67 207.39,-56.9 207.16,-54.17 200.36,-54.17 201.51,-53.51 201.51,-49.11 206.05,-49.11 206.05,-46.6 200.36,-46.6 
				201.51,-45.96 201.51,-41.54 			"/>
			<path class="st1" d="M179.88-39.03l-0.64-1.44l-3.52-16.2h-3.27l-3.5,16.14l-0.65,1.5h3.46l0.04-1.5l0.19-1.03l-0.84-0.47h4.92
				l0.3,1.5v1.5H179.88z M172.52-44.39l1.44-7.89l0.16-1.16l0.1,1.13l1.43,7.91H172.52z"/>
			<polygon class="st1" points="231.3,-55.22 231.51,-56.67 228.16,-56.67 228.38,-55.22 228.38,-40.48 228.16,-39.03 
				231.51,-39.03 231.3,-40.48 			"/>
		</g>
	</g>
</g>
<g>
	<g>
		<path class="st0" d="M205.72,135.83l-1.41,1.62c0.94,0.2,1.68,0.44,2.21,0.66l0.72-0.84c1.41-1.92,2.15-4.09,2.15-6.34v-5.99
			c0-3.46-1.75-6.61-4.58-8.88c1.91,2.08,3.06,4.65,3.06,7.44v5.99C207.86,131.73,207.13,133.9,205.72,135.83"/>
		<path class="st0" d="M186.05,140.75c0.01-0.01,0.01-0.01,0.02-0.01c-0.02-0.01-0.04-0.01-0.06-0.02L186.05,140.75z"/>
		<path class="st0" d="M184.09,140.05c-0.89-0.39-1.79-0.85-2.5-1.22c0.08,0.07,0.13,0.15,0.21,0.22c1.03,0.99,2.24,1.77,3.56,2.35
			c0.25-0.26,0.5-0.48,0.68-0.66c-0.37-0.07-0.84-0.24-1.35-0.45C184.49,140.23,184.29,140.14,184.09,140.05"/>
		<path class="st0" d="M233.36,130.89v-4.24c0-2.52,2.26-4.57,5.04-4.57c0.43,0,0.84,0.06,1.24,0.15c-0.61-0.93-1.79-1.88-3.9-1.47
			c-2.23,0.47-3.9,2.28-3.9,4.45v4.24l0.7,6.28h-12.61l1.55,1.44h12.58L233.36,130.89z"/>
		<path class="st0" d="M271.44,125.45c0-0.95,0.22-2.22,1.27-2.9c1.14-0.74,2.45-0.84,5.84-0.48c3.35,0.37,6.04,0.71,8.3,1.01
			c1.2,0.15,2.28,0.3,3.27,0.41l0.95,0.12v-11.4l-1.52-1.43v11.39l-0.95-0.12c-0.99-0.12-2.06-0.25-3.26-0.41
			c-2.25-0.29-4.95-0.63-8.3-1.01c-3.39-0.36-4.7-0.26-5.84,0.48c-1.05,0.69-1.27,1.96-1.27,2.91v10.54c0.49-0.21,1-0.38,1.52-0.53
			V125.45z"/>
		<path class="st0" d="M36.29,135.83l-1.41,1.62c0.95,0.2,1.68,0.44,2.2,0.66l0.73-0.84c1.41-1.92,2.14-4.09,2.14-6.34v-5.99
			c0-3.46-1.75-6.61-4.57-8.88c1.91,2.08,3.05,4.65,3.05,7.44v5.99C38.43,131.73,37.7,133.9,36.29,135.83"/>
		<path class="st0" d="M16.62,140.75c0.01-0.01,0.01-0.01,0.03-0.01c-0.02-0.01-0.04-0.01-0.06-0.02L16.62,140.75z"/>
		<path class="st0" d="M14.67,140.05c-0.88-0.39-1.8-0.85-2.5-1.22c0.07,0.07,0.14,0.15,0.21,0.22c1.03,0.99,2.24,1.77,3.56,2.35
			c0.25-0.26,0.49-0.48,0.68-0.66c-0.37-0.07-0.85-0.24-1.35-0.45C15.07,140.23,14.87,140.14,14.67,140.05"/>
		<path class="st0" d="M63.93,130.89v-4.24c0-2.52,2.26-4.57,5.03-4.57c0.43,0,0.84,0.06,1.24,0.15c-0.6-0.93-1.78-1.88-3.89-1.47
			c-2.23,0.47-3.9,2.28-3.9,4.45v4.24l0.7,6.28H50.5l1.56,1.44h12.58L63.93,130.89z"/>
		<path class="st0" d="M121.8,149.19c-0.91-0.26-1.2-1.38-1.2-2.87v-19.67c0-1.71,0.49-4.57,3.75-4.57c0.04,0,0.09,0.01,0.13,0.01
			c-0.42-1.06-1.62-1.67-3.03-1.22c-2.01,0.69-2.37,2.91-2.37,4.33v20.97C119.09,147.64,119.75,149.59,121.8,149.19"/>
		<g>
			<path class="st0" d="M249.82,116.21c2.01,2.17,3.21,4.85,3.21,7.75v41.6c0,7.18-7.25,13.02-16.15,13.02
				c-0.65,0-1.28-0.04-1.91-0.1c-0.12-0.01-0.23-0.03-0.35-0.04c-0.52-0.06-1.02-0.13-1.51-0.23c-0.12-0.02-0.23-0.04-0.34-0.07
				c-0.42-0.09-0.84-0.19-1.25-0.3c-0.25-0.07-0.5-0.14-0.74-0.22c-0.11-0.04-0.22-0.08-0.33-0.12c-1.49-0.49-2.84-1.11-3.96-1.75
				c2.95,2.62,7.19,4.28,11.92,4.28c8.9,0,16.14-5.85,16.14-13.02v-41.6C254.54,121.82,252.74,118.57,249.82,116.21"/>
			<path class="st0" d="M212.95,143.26c1.92,2.13,2.99,4.79,2.99,7.55v14.75c0,7.18-7.24,13.02-16.15,13.02
				c-0.05,0-0.09-0.01-0.14-0.01l0,0.01c-0.17,0-0.34-0.02-0.51-0.03c-0.39-0.01-0.78-0.02-1.16-0.06c-0.4-0.04-0.79-0.09-1.18-0.15
				c-0.14-0.02-0.27-0.04-0.4-0.06c-2.65-0.45-4.98-1.36-6.8-2.35c2.94,2.51,7.09,4.09,11.71,4.09c8.9,0,16.14-5.84,16.14-13.02
				v-14.75c0-2.97-1.22-5.83-3.43-8.04C213.69,143.87,213.32,143.56,212.95,143.26"/>
			<path class="st0" d="M197.96,167.38c-1.04-0.48-1.68-1.83-1.68-3.62c0-0.02,0-0.03-0.01-0.05V153.5c0-2.52,2.26-4.57,5.04-4.57
				c0.45,0,0.88,0.06,1.3,0.16c-0.49-0.78-1.75-1.96-4.18-1.42c-2.12,0.54-3.69,2.29-3.69,4.38v12.06l0.01,0
				C194.79,165.88,196.15,167.15,197.96,167.38"/>
			<path class="st0" d="M330.21,172.56v-47.15c0-3.59-1.81-6.84-4.73-9.2c2,2.17,3.2,4.85,3.2,7.76v47.15l0.76,6.02H317l1.4,1.44
				h12.57L330.21,172.56z"/>
			<path class="st0" d="M80.39,116.21c2,2.17,3.2,4.85,3.2,7.75v41.6c0,7.18-7.24,13.02-16.14,13.02c-0.65,0-1.28-0.04-1.91-0.1
				c-0.12-0.01-0.23-0.03-0.35-0.04c-0.51-0.06-1.02-0.13-1.51-0.23c-0.11-0.02-0.23-0.04-0.34-0.07c-0.42-0.09-0.84-0.19-1.25-0.3
				c-0.25-0.07-0.49-0.14-0.74-0.22c-0.11-0.04-0.22-0.08-0.33-0.12c-1.49-0.49-2.83-1.11-3.96-1.75c2.95,2.62,7.19,4.28,11.92,4.28
				c8.91,0,16.15-5.85,16.15-13.02v-41.6C85.12,121.82,83.31,118.57,80.39,116.21"/>
			<path class="st0" d="M43.52,143.26c1.92,2.13,2.99,4.79,2.99,7.55v14.75c0,7.18-7.24,13.02-16.15,13.02
				c-0.05,0-0.09-0.01-0.14-0.01v0.01c-0.17,0-0.34-0.02-0.51-0.03c-0.39-0.01-0.77-0.02-1.16-0.06c-0.4-0.04-0.79-0.09-1.18-0.15
				c-0.14-0.02-0.27-0.04-0.41-0.06c-2.65-0.45-4.97-1.36-6.8-2.35c2.94,2.51,7.1,4.09,11.71,4.09c8.91,0,16.15-5.84,16.15-13.02
				v-14.75c0-2.97-1.22-5.83-3.44-8.04C44.26,143.87,43.89,143.56,43.52,143.26"/>
			<path class="st0" d="M28.53,167.38c-1.03-0.48-1.68-1.83-1.68-3.62c0-0.02,0-0.03,0-0.05V153.5c0-2.52,2.26-4.57,5.03-4.57
				c0.45,0,0.89,0.06,1.3,0.16c-0.49-0.78-1.74-1.96-4.18-1.42c-2.11,0.54-3.68,2.29-3.68,4.38v12.06l0.01,0
				C25.36,165.88,26.72,167.15,28.53,167.38"/>
			<path class="st0" d="M176.31,150.19c-0.08-9.22-2.15-12.54-6.38-18.49l-1.38-1.95c-0.54-0.78-1.09-1.52-1.61-2.24
				c-2.33-3.18-3.66-4.75-3.97-7.82l1.42-7.31l-1.37-1.94l-1.57,7.81c0.32,3.07,1.64,4.64,3.97,7.82c0.53,0.71,1.07,1.46,1.62,2.24
				l1.38,1.94c4.23,5.94,6.3,9.27,6.38,18.5h0l0.02,0.54v16.27c0,7.18-7.25,13.02-16.15,13.02c-0.65,0-1.28-0.04-1.91-0.1
				c-0.12-0.01-0.24-0.03-0.35-0.04c-0.51-0.06-1.02-0.13-1.51-0.23c-0.11-0.02-0.23-0.04-0.34-0.07c-0.42-0.09-0.84-0.19-1.25-0.3
				c-0.25-0.07-0.5-0.15-0.74-0.22c-0.11-0.04-0.22-0.08-0.33-0.12c-1.49-0.49-2.84-1.1-3.96-1.75c2.95,2.62,7.19,4.28,11.91,4.28
				c8.91,0,16.15-5.85,16.15-13.02v-16.27L176.31,150.19L176.31,150.19z"/>
			<path class="st0" d="M134.65,115.6c1.94,2.2,3.04,5.06,3.04,8.37v23.45c0,7.55-6.25,13.02-14.86,13.02
				c-0.57,0-1.11-0.03-1.66-0.07c-0.4-0.04-0.78-0.08-1.17-0.14c-0.06-0.01-0.12-0.02-0.18-0.03c-2.66-0.4-4.7-1.26-6.21-2.09
				c2.64,2.36,6.39,3.78,10.75,3.78c8.61,0,14.86-5.48,14.86-13.02V125.4C139.22,121.32,137.52,117.9,134.65,115.6"/>
			<path class="st0" d="M312.05,120.67c-0.05,0-0.1,0.01-0.14,0.02c-0.26,0.02-0.53,0.08-0.82,0.15c-2.06,0.57-3.58,2.29-3.58,4.35
				v45.65l0.69,6.29h-12.43l1.38,1.44h12.57l-0.7-6.29v-45.65c0-2.52,2.26-4.57,5.04-4.57c0.4,0,0.78,0.05,1.15,0.13
				C314.62,121.37,313.57,120.59,312.05,120.67"/>
			<path class="st0" d="M287.9,140.22c2.06,2.3,3.19,5.25,3.19,8.41v16.93c0,7.18-7.24,13.02-16.14,13.02
				c-0.54,0-1.08-0.02-1.63-0.06l-0.05,0c-0.99-0.08-2-0.24-3.05-0.51c-0.06-0.01-0.12-0.03-0.17-0.04c-0.4-0.1-0.81-0.22-1.22-0.36
				c-0.13-0.04-0.26-0.09-0.38-0.13c-1.25-0.45-2.58-1.04-4.03-1.86c2.96,2.7,7.26,4.42,12.07,4.42c8.9,0,16.14-5.83,16.14-13.02
				v-16.93c0-3.54-1.4-6.8-3.94-9.19C288.44,140.67,288.18,140.44,287.9,140.22"/>
			<path class="st0" d="M106.57,165.19c-2.86-1.32-4.58-4.93-4.58-8.95v0v-29.59c0-1.71,0.49-4.57,3.75-4.57
				c0.05,0,0.09,0.01,0.14,0.01c-0.43-1.07-1.64-1.69-3.07-1.21c-1.98,0.71-2.35,2.91-2.35,4.32v29.59
				C100.47,160.21,102.25,164.08,106.57,165.19"/>
			<path class="st0" d="M273.12,167.38c-1.03-0.48-1.68-1.83-1.68-3.62l0-12.47c0.01-2.51,2.27-4.55,5.03-4.55
				c0.35,0,0.68,0.04,1.01,0.1c-0.78-1.11-2.49-1.99-4.64-1.12c-1.72,0.72-2.93,2.29-2.93,4.12l0.01,14.18l-0.01,0.01
				C269.92,165.86,271.3,167.15,273.12,167.38"/>
			<path class="st2" d="M32.49,137.51c0.35-0.36,0.68-0.71,1-1.04l1.5-1.73c1.41-1.92,2.14-4.09,2.14-6.35v-5.99
				c0-6.92-6.97-12.55-15.55-12.55c-8.58,0-15.55,5.63-15.55,12.55v5.99c0,3.06,1.25,5.96,3.53,8.14c2.17,2.08,5.06,3.31,8.29,3.56
				l-2.33,2.57c-1.71,2.11-2.6,4.54-2.6,7.07v14.75c0,7.18,7.24,13.02,16.14,13.02c8.91,0,16.15-5.84,16.15-13.02v-14.75
				c0-2.97-1.22-5.83-3.43-8.04C39.41,139.32,36.16,137.88,32.49,137.51 M17.22,127.19v-3.6c0-2.53,1.83-4.36,4.36-4.36
				c2.52,0,4.36,1.83,4.36,4.36v3.6c0,2.53-1.83,4.36-4.36,4.36C19.05,131.55,17.22,129.73,17.22,127.19 M34.09,163.24
				c0,2.52-2.26,4.57-5.04,4.57c-2.78,0-5.04-2.05-5.04-4.57v-12.27c0-2.52,2.26-4.57,5.04-4.57c2.78,0,5.04,2.05,5.04,4.57V163.24z
				"/>
			<path class="st2" d="M66.15,109.86c-8.91,0-16.15,5.84-16.15,13.02l0,5.64l-0.77,6.13h12.57l-0.7-6.28v-4.24
				c0-2.52,2.26-4.57,5.04-4.57c2.77,0,5.04,2.05,5.04,4.57v39.12c0,2.52-2.26,4.57-5.04,4.57c-2.78,0-5.04-2.05-5.04-4.57l0-7.13
				l0.71-6.37H49.24l0.76,6.02v8.72c0,7.18,7.24,13.02,16.15,13.02c8.9,0,16.14-5.84,16.14-13.02v-41.6
				C82.29,115.7,75.05,109.86,66.15,109.86"/>
			<path class="st2" d="M201.9,137.51c0.35-0.36,0.68-0.71,1-1.04l1.45-1.66c1.44-1.94,2.2-4.14,2.2-6.41v-5.99
				c0-6.92-6.98-12.55-15.55-12.55c-8.57,0-15.55,5.63-15.55,12.55v5.99c0,3.06,1.25,5.96,3.53,8.14c2.16,2.08,5.06,3.31,8.29,3.56
				l-2.33,2.57c-1.71,2.11-2.61,4.54-2.61,7.07v14.75c0,7.18,7.24,13.02,16.14,13.02c8.91,0,16.15-5.84,16.15-13.02v-14.75
				c0-2.97-1.22-5.83-3.43-8.04C208.82,139.32,205.58,137.88,201.9,137.51 M186.63,127.19v-3.6c0-2.53,1.84-4.36,4.36-4.36
				c2.53,0,4.36,1.83,4.36,4.36v3.6c0,2.53-1.83,4.36-4.36,4.36C188.47,131.55,186.63,129.73,186.63,127.19 M203.51,163.24
				c0,2.52-2.26,4.57-5.04,4.57c-2.77,0-5.03-2.05-5.03-4.57v-12.27c0-2.52,2.25-4.57,5.03-4.57c2.78,0,5.04,2.05,5.04,4.57V163.24z
				"/>
			<path class="st2" d="M235.56,109.86c-8.91,0-16.15,5.84-16.15,13.02l0,5.64l-0.77,6.13h12.58l-0.7-6.28v-4.24
				c0-2.52,2.26-4.57,5.04-4.57c2.77,0,5.04,2.05,5.04,4.57v39.12c0,2.52-2.26,4.57-5.04,4.57c-2.78,0-5.04-2.05-5.04-4.57l0-7.13
				l0.7-6.37h-12.58l0.76,6.02v8.72c0,7.18,7.24,13.02,16.15,13.02c8.9,0,16.14-5.84,16.14-13.02v-41.6
				C251.7,115.7,244.46,109.86,235.56,109.86"/>
			<path class="st2" d="M121.92,109.86c-4.3,0-7.67,1.41-9.82,4.09c-2.06-2.71-5.29-4.09-9.63-4.09c-8.5,0-14.43,5.36-14.43,13.02
				v32.31c0,10.78,5.87,21.11,22.35,21.11l5.97-0.01l6.89,1.21v-12.11l-6.99,1.1h-3.73c-8.88,0-13.38-3.5-13.38-12.77v-29.6
				c0-1.71,0.49-4.57,3.75-4.57c3.27,0,3.75,2.87,3.75,4.57v22.21c0,7.54,6.25,13.02,14.86,13.02c8.61,0,14.86-5.48,14.86-13.02
				v-23.45C136.38,115.21,130.44,109.86,121.92,109.86 M125.27,145.09c0,1.71-0.48,4.57-3.75,4.57c-3.26,0-3.75-2.86-3.75-4.57
				v-20.97c0-1.71,0.49-4.57,3.75-4.57c3.27,0,3.75,2.87,3.75,4.57V145.09z"/>
			<path class="st2" d="M173.48,147.67c-0.07-9.23-2.15-12.55-6.38-18.5l-1.37-1.94c-0.54-0.78-1.09-1.53-1.62-2.24
				c-2.33-3.18-3.65-4.75-3.97-7.82l1.42-7.31h-12.69v4.89c0,8.21,3.2,12.58,6.29,16.8c0.48,0.65,0.97,1.32,1.47,2.03l1.44,2.03
				c3.5,4.91,4.33,6.07,4.33,12.6v15.03c0,2.52-2.25,4.57-5.03,4.57c-2.78,0-5.04-2.05-5.04-4.57l0-7.13l0.71-6.37h-12.58l0.77,6.02
				v8.72c0,7.18,7.24,13.02,16.14,13.02c8.9,0,16.15-5.84,16.15-13.02v-16.27L173.48,147.67L173.48,147.67z"/>
			<path class="st2" d="M273.58,134.53c-1.79,0.11-3.47,0.5-4.98,1.15v-12.75c0-0.95,0.22-2.22,1.27-2.9
				c1.14-0.74,2.45-0.84,5.84-0.48c3.35,0.37,6.04,0.71,8.3,1c1.2,0.16,2.28,0.3,3.26,0.42l0.95,0.11v-11.41l-1.02,0.21
				c-2.16,0.44-3.72,0.64-5.49,0.71c-1.05-0.01-2.07-0.14-3.25-0.29c-1.64-0.2-3.51-0.43-6.01-0.43c-9.51,0-14.97,4.24-14.97,11.62
				l0,43c0,7.18,7.24,13.02,16.15,13.02c8.9,0,16.14-5.84,16.14-13.02v-16.93c0-3.54-1.4-6.8-3.95-9.19
				C283.74,136.39,279.93,134.12,273.58,134.53 M278.67,163.24c0,2.52-2.26,4.57-5.03,4.57c-2.78,0-5.04-2.05-5.04-4.57l0-14.46
				c0.01-2.51,2.27-4.55,5.04-4.55c2.77,0,5.03,2.05,5.03,4.57V163.24z"/>
			<path class="st2" d="M328.14,176.05l-0.76-6.01v-47.15c0-7.18-7.25-13.03-16.15-13.03c-8.91,0-16.15,5.85-16.15,13.03l0,47.04
				l-0.77,6.12h12.57l-0.7-6.28v-45.66c0-2.52,2.26-4.57,5.04-4.57c2.78,0,5.04,2.05,5.04,4.57l0.01,45.56l-0.7,6.38H328.14z"/>
			<path class="st0" d="M320.36,126.96v42.25l-0.63,4.91h-1.45l0.66-4.91v-42.25c0-1.68,0.07-3.8-1-5.86
				C319.47,122.56,320.36,123.56,320.36,126.96 M311.93,112.25c-6.86,0.02-14.15,4.35-14.15,12.31v44.65l-0.66,4.91h1.44l0.63-4.91
				v-44.65c0-7.05,6.57-11.05,12.74-11.07c0,0,3.72-0.07,7.24,0.74C317.19,112.81,314.08,112.25,311.93,112.25 M223.52,128.7v-4.14
				c0-7.05,6.56-11.05,12.74-11.07c0,0,3.72-0.07,7.25,0.74c-1.98-1.42-5.1-1.98-7.25-1.98c-6.86,0.02-14.15,4.35-14.15,12.31v4.14
				l-0.32,3.62h1.39L223.52,128.7z M223.52,164.44v-8.32l-0.29-2.76h4.9l0.15-1.25h-5.18h-1.37l0.37,4.01v8.32
				c0,5.49,3.78,8.82,8.05,10.02C227.15,173.03,223.52,170.64,223.52,164.44 M241.41,119.41c1.23,1.02,1.86,2.68,1.86,5v39.49
				c0,3.86-3.38,6.11-6.55,6.26c-1.84,0.16-4.42-0.34-5.4-1.07c1.05,1.6,3.26,2.42,5.55,2.41c3.83-0.19,7.82-2.86,7.82-7.6v-39.49
				C244.68,121.88,242.98,119.99,241.41,119.41 M279.47,144.4c1.22,1.02,1.86,2.68,1.86,5v14.5c0,3.86-3.37,6.11-6.55,6.26
				c-1.83,0.16-4.41-0.34-5.39-1.07c1.05,1.6,3.29,2.42,5.58,2.41c3.83-0.19,7.79-2.86,7.79-7.6v-14.5
				C282.75,146.86,281.04,144.97,279.47,144.4 M278.79,112.74c-1.8-0.22-3.83-0.47-6.63-0.47c-7.28,0-11.98,3.89-11.98,9.91v42.25
				c0,5.49,3.77,8.82,8.05,10.02c-3-1.42-6.63-3.82-6.63-10.02v-42.25c0-5.24,4.05-8.49,10.57-8.49c2.71,0,4.7,0.24,6.45,0.45
				c1.36,0.16,2.57,0.27,3.83,0.27l-0.06,0.04h3.13v-0.23v-0.45v-0.98c-0.78,0.09-1.55,0.18-2.17,0.22
				C281.85,113.11,280.42,112.93,278.79,112.74 M280.91,138.66c-3.54-1.89-9.01-1.82-12.31-0.24v1.69
				C271.65,138.21,277.02,137.61,280.91,138.66 M145.28,164.44v-8.32l0,0l-0.29-2.76h4.89l0.15-1.25h-5.17h-1.38l0.37,4.01h0v8.32
				c0,5.49,3.77,8.82,8.05,10.02C148.91,173.03,145.28,170.64,145.28,164.44 M165.1,146.87v17.03c0,3.86-3.38,6.11-6.55,6.26
				c-1.84,0.16-4.42-0.34-5.4-1.07c1.05,1.6,3.26,2.42,5.56,2.41c3.83-0.19,7.82-2.86,7.82-7.6v-17.03c0-5.36-1.84-7.2-3.69-9.17
				C164.92,141.14,165.1,143.15,165.1,146.87 M153.21,116.18v-2.81h4.71l0.39-1.25h-5.1h-0.95h-0.65v3.26c0,3.7,0.8,7.69,3.47,11.09
				C153.57,122.87,153.21,121.39,153.21,116.18 M186.44,164.44v-14.68c0-3.14,2.69-7.91,6.39-9.99c-4.52,1.3-7.81,5.62-7.81,9.99
				v14.68c0,5.49,3.77,8.82,8.05,10.02C190.07,173.03,186.44,170.64,186.44,164.44 M179.56,128.36V124c0-7.71,7.67-12.85,18.03-9.77
				c-5.93-4.61-19.45-1.79-19.45,9.77v4.36c0,4.41,2.2,7.15,5,7.99C181,134.95,179.56,132.94,179.56,128.36 M204.33,146.5
				c1.22,1.03,1.86,2.68,1.86,5v12.39c0,3.86-3.38,6.11-6.56,6.26c-1.84,0.16-4.42-0.34-5.4-1.07c1.05,1.6,3.28,2.42,5.58,2.41
				c3.83-0.19,7.79-2.86,7.79-7.6v-12.39C207.61,148.98,205.9,147.08,204.33,146.5 M199.45,127.49v-4.09c0-2.53-1.71-4.43-3.28-5.01
				c1.22,1.03,1.86,2.69,1.86,5.01v4.09c0,3.31-2.48,5.42-5.2,6.05c-2.09,0.49-4.62,0.22-5.6-0.52c0.87,1.4,3.24,2.22,5.84,1.87
				C196.41,134.2,199.45,131.63,199.45,127.49 M54.1,128.7v-4.14c0-7.05,6.56-11.05,12.74-11.07c0,0,3.73-0.07,7.24,0.74
				c-1.98-1.42-5.09-1.98-7.24-1.98c-6.86,0.02-14.16,4.35-14.16,12.31v4.14l-0.32,3.62h1.39L54.1,128.7z M54.1,164.44v-8.32
				l-0.29-2.76h4.9l0.15-1.25h-5.18h-1.37l0.37,4.01v8.32c0,5.49,3.78,8.82,8.05,10.02C57.73,173.03,54.1,170.64,54.1,164.44
				 M71.99,119.41c1.23,1.02,1.86,2.68,1.86,5v39.49c0,3.86-3.38,6.11-6.56,6.26c-1.84,0.16-4.42-0.34-5.39-1.07
				c1.05,1.6,3.25,2.42,5.56,2.41c3.83-0.19,7.81-2.86,7.81-7.6v-39.49C75.27,121.88,73.55,119.99,71.99,119.41 M17.02,164.44
				v-14.68c0-3.14,2.69-7.91,6.39-9.99c-4.52,1.3-7.81,5.62-7.81,9.99v14.68c0,5.49,3.78,8.82,8.05,10.02
				C20.65,173.03,17.02,170.64,17.02,164.44 M10.14,128.36V124c0-7.71,7.67-12.85,18.03-9.77c-5.93-4.61-19.45-1.79-19.45,9.77v4.36
				c0,4.41,2.2,7.15,5,7.99C11.59,134.95,10.14,132.94,10.14,128.36 M34.92,146.5c1.22,1.03,1.86,2.68,1.86,5v12.39
				c0,3.86-3.38,6.11-6.56,6.26c-1.83,0.16-4.42-0.34-5.4-1.07c1.05,1.6,3.28,2.42,5.58,2.41c3.83-0.19,7.79-2.86,7.79-7.6v-12.39
				C38.19,148.98,36.49,147.08,34.92,146.5 M30.03,127.49v-4.09c0-2.53-1.71-4.43-3.28-5.01c1.23,1.03,1.86,2.69,1.86,5.01v4.09
				c0,3.31-2.49,5.42-5.2,6.05c-2.09,0.49-4.62,0.22-5.6-0.52c0.87,1.4,3.24,2.22,5.84,1.87C27,134.2,30.03,131.63,30.03,127.49
				 M109.32,145.61c0,4.4,1.99,7.4,4.29,8.77c-1.93-1.67-2.87-5.22-2.87-8.77v-21.57c0-2.53-1.71-4.42-3.28-5
				c1.22,1.02,1.86,2.68,1.86,5V145.61z M107.69,168.35c2.82,1.84,8.9,1.86,8.9,1.86l4.18-0.58v-1.33l-4.3,0.67
				C116.47,168.96,110.83,169.05,107.69,168.35 M126.06,118.86c1.23,1.02,1.86,2.68,1.86,5v21.48c0,6.39-6.44,7.24-8.8,5.84
				c2.49,2.51,10.23,1.8,10.23-5.84v-21.48C129.34,121.33,127.63,119.44,126.06,118.86 M96.4,115.18c3.13-2.06,7.56-2.62,11.07-1.55
				c-3.82-2.11-8.57-1.75-11.97,0.49c-2.9,1.9-4.77,5.27-4.77,8.41v33.76c0,7.03,2.95,13.15,10.43,15.72c-5.87-2.7-9-8.78-9-15.72
				v-33.43C92.15,119.72,93.81,116.89,96.4,115.18 M116.41,115.18c3.14-2.06,7.56-2.62,11.06-1.55c-3.82-2.11-8.57-1.75-11.97,0.49
				c-0.7,0.46-1.35,1.01-1.91,1.62c0.37,0.47,0.62,0.83,0.84,1.23C115.01,116.3,115.66,115.68,116.41,115.18"/>
		</g>
		<g>
			<g>
				<path class="st0" d="M224.8,188.76l0.57,2.96v8.6l-3.8-9.3c-0.58-1.37-1.92-2.26-3.41-2.26h-3.52l0.41,2.96l0.01,20.92
					l-0.42,3.16h6.58l-0.32-3.04v-8.63l3.8,9.41c0.58,1.36,1.92,2.26,3.41,2.26h3.55l-0.46-3.04l-0.01-20.9l0.47-3.09H224.8z"/>
				<path class="st0" d="M92.34,188.27l0.5,5.86h7.44l-6.27,13.55c-1.03,2.26-1.57,4.76-1.57,7.23v0.89l11.24-0.02l3.24,0.5v-5.86
					h-7.84l6.45-13.67c1.28-3,1.39-4.76,1.39-7.11v-0.89l-11.25,0.01L92.34,188.27z"/>
				<path class="st0" d="M141.01,188.76h-8.33l0.84,3.07v0.52h-0.09l0.09,0.05v20.16l-0.82,3.23h8.31c4.83,0,7.7-3,7.7-8.04v-10.97
					C148.71,191.76,145.84,188.76,141.01,188.76z M139.48,194.12h1.23c1.55,0,2.1,1.43,2.1,2.66v10.97c0,1.23-0.55,2.66-2.1,2.66
					h-1.23V194.12z"/>
				<polygon class="st0" points="119.24,210.42 119.24,204.99 125.73,204.95 125.73,199.6 119.24,199.6 119.24,194.17 
					127.23,194.12 127.73,188.27 124.55,188.76 112.65,188.76 113.28,191.8 113.29,203.18 113.28,203.18 113.29,212.58 
					112.66,215.8 124.41,215.78 127.73,216.3 127.21,210.42 				"/>
				<path class="st0" d="M174.66,188.27l0.51,5.86h7.43l-6.26,13.55c-1.04,2.26-1.59,4.76-1.59,7.23v0.89l11.24-0.02l3.24,0.5v-5.86
					h-7.85l6.46-13.67c1.29-3,1.39-4.76,1.39-7.11v-0.89l-11.25,0.01L174.66,188.27z"/>
				<polygon class="st0" points="201.56,210.42 201.56,204.99 208.05,204.95 208.05,199.6 201.56,199.6 201.56,194.17 
					209.56,194.12 210.06,188.27 206.87,188.76 194.98,188.76 195.6,191.8 195.62,203.18 195.6,203.18 195.63,212.58 194.99,215.8 
					206.73,215.78 210.07,216.3 209.54,210.42 				"/>
				<path class="st0" d="M164.45,188.76h-2.63h-0.49h-2.97l-4.54,20.96h-0.01l0.01,0l-0.58,2.69l-1.46,3.39h7.18l0.07-2.88
					l0.26-1.43h4.26l0.27,1.27v3.04h7.25l-1.44-3.23L164.45,188.76z M160.21,206.35l1.2-6.54l1.18,6.54H160.21z"/>
				<polygon class="st0" points="244.2,191.84 244.66,188.76 237.82,188.76 238.27,191.72 238.27,212.71 237.82,215.8 244.66,215.8 
					244.21,212.84 				"/>
			</g>
			<g>
				<path class="st3" d="M226.28,206.13l-0.28-1.98l-5.22-12.78c-0.44-1.04-1.46-1.72-2.6-1.72h-2.5l0.28,2.07v21.04l-0.28,2.15
					h4.59l-0.22-2.15v-14.37l0.3,1.93l5.2,12.88c0.44,1.04,1.46,1.72,2.59,1.72h2.53l-0.31-2.15v-21.04l0.31-2.07h-4.79l0.39,2.07
					V206.13z"/>
				<path class="st3" d="M97.69,211.31h8.35v3.94l-2.21-0.35H93.34c0-2.37,0.51-4.7,1.5-6.85l6.3-13.65l2.09-1.17h-9.56l-0.33-3.92
					l2.21,0.33h10.5c0,2.37-0.11,3.95-1.31,6.75L97.69,211.31z"/>
				<path class="st3" d="M141.03,189.64h-7.17l0.58,2.07v20.95l-0.58,2.24h7.17c3.87,0,6.83-2.12,6.83-7.15v-10.97
					C147.85,191.77,144.9,189.64,141.03,189.64 M143.72,207.76c0,2.06-1.16,3.55-2.99,3.55h-2.12v-17.1l-1.76-0.98h3.88
					c1.83,0,2.99,1.49,2.99,3.55V207.76z"/>
				<polygon class="st3" points="126.42,211.31 126.78,215.25 124.56,214.91 113.76,214.91 114.19,212.75 114.19,191.72 
					113.76,189.64 124.56,189.64 126.78,189.31 126.45,193.23 116.71,193.23 118.37,194.17 118.37,200.48 124.86,200.48 
					124.86,204.07 116.71,204.07 118.37,204.99 118.37,211.31 				"/>
				<path class="st3" d="M180.02,211.31h8.36v3.94l-2.22-0.35h-10.5c0-2.37,0.51-4.7,1.5-6.85l6.3-13.65l2.09-1.17h-9.55l-0.34-3.92
					l2.21,0.33h10.5c0,2.37-0.11,3.95-1.31,6.75L180.02,211.31z"/>
				<polygon class="st3" points="208.75,211.31 209.11,215.25 206.89,214.91 196.09,214.91 196.51,212.75 196.51,191.72 
					196.09,189.64 206.89,189.64 209.11,189.31 208.78,193.23 199.04,193.23 200.69,194.17 200.69,200.48 207.2,200.48 
					207.2,204.07 199.04,204.07 200.69,204.99 200.69,211.31 				"/>
				<path class="st3" d="M169.73,214.91l-0.92-2.07l-5.04-23.19h-4.68l-5.01,23.11l-0.92,2.15h4.96l0.06-2.15l0.27-1.48l-1.21-0.67
					h7.05l0.44,2.15v2.15H169.73z M159.18,207.24l2.06-11.3l0.23-1.65l0.15,1.62l2.05,11.33H159.18z"/>
				<polygon class="st3" points="243.35,191.72 243.66,189.64 238.86,189.64 239.17,191.72 239.17,212.84 238.86,214.91 
					243.66,214.91 243.35,212.84 				"/>
			</g>
		</g>
	</g>
	<g>
		<path class="st0" d="M180.86,20.26c-1.12-1.67-3.65-0.95-3.19,0.72c0.17-0.08,0.35-0.06,0.52,0c0.75,0.31,0.39,1.5-0.4,1.37
			c-1.39-0.22-2.84-0.39-4.34-0.48c-0.88-0.05-1.16-1.17-0.49-1.78c0.43-0.39,1.06-0.37,1.41,0.13c0.81-1.17-0.99-3.6-3.32-1.66
			c0.3-0.55,0.72-1.67-0.38-2.88c-0.44-0.48-1.41-1.13-2.16-1.76c-0.75,0.63-1.72,1.28-2.16,1.76c-1.11,1.21-0.68,2.33-0.38,2.88
			c-2.34-1.94-4.14,0.49-3.33,1.66c0.36-0.5,1-0.52,1.42-0.13c0.65,0.62,0.19,1.76-0.69,1.82c-1.49,0.09-2.76,0.23-4.15,0.45
			c-0.78,0.13-1.15-1.06-0.4-1.37c0.16-0.06,0.34-0.08,0.51,0c0.47-1.67-2.06-2.39-3.2-0.72c0.03-1.2-1.23-2.23-5-1.67
			c0,0,0.98,0.22,1.94,1.49c0.78,1.04,1.84,2.59,2.82,4.62c0.27,0.56,0.54,1.29,0.48,1.9c7.17-1.48,17.11-1.48,24.28,0
			c-0.06-0.61,0.2-1.34,0.48-1.9c0.98-2.02,2.03-3.58,2.82-4.62c0.96-1.26,1.94-1.49,1.94-1.49
			C182.1,18.03,180.83,19.06,180.86,20.26 M157.11,25.44c0,0-0.02-0.24-0.3-0.96c-0.27-0.71-1.78-3.9-3.01-4.83
			c1.41,0,2,0.88,2.31,1.97c-0.03-0.79,1.31-1.89,2.24-1.08c-0.67,0.01-1.55,0.82-1.3,1.84c0.39,1.56,0.28,2.61,4.12,2.49
			C159.59,25.02,158.29,25.12,157.11,25.44 M161.79,23.74c0,0,2.38-0.67,2.38-0.67l-4.97,0.06c0,0,2.23-0.3,3.25-0.4
			c1.57-0.16,2.55-0.29,2.69-1.27c0.26,0.2,0.49,0.74,0.49,2.02C164.85,23.63,161.81,23.74,161.79,23.74 M163.11,18.99
			c0.33-0.86,2.79-0.72,3.24,1.44C165.77,19.01,163.49,18.67,163.11,18.99 M180.26,24.47c-0.28,0.72-0.3,0.96-0.3,0.96
			c-1.09-0.29-6.27-0.96-10.47-0.99h-0.98v-9.47c0,0.38,1.77,0.97,1.89,2.38c0.08,1.13-0.79,1.78-0.58,3.14
			c0.72-1.39,3.13-2.6,4.02-1.28c-0.89-0.35-2.17,0.16-2.37,1.34c-0.06,0.35-0.12,1.23,0.07,1.97c2,0.1,5.39,0.35,7.83,0.92
			c0.04,0.01,0.07,0.01,0.07,0.01s0.49-0.34,0.56-1.22c0.06-0.89-0.6-1.68-1.27-1.69c0.93-0.81,2.26,0.29,2.23,1.08
			c0.31-1.09,0.91-1.97,2.31-1.97C182.04,20.58,180.53,23.76,180.26,24.47"/>
		<path class="st0" d="M111.06,83.7c-0.93-0.64-2.97-0.69-4.15-0.65c0.39-0.23,0.79-0.45,1.19-0.67c1.39-0.69,2.85-0.68,3.76-0.57
			c0.65,0.07,1.31,0.02,1.94-0.18l0.27,0c-0.58-0.39-1.76-0.64-2.45-0.75c2.19-1.02,6.74-1.27,11.12,0.06
			c-4.86-2.56-11.2-1.69-14.49-0.33c0.66-0.06,1.32,0.41,1.32,0.41c-1.46,0.11-4.52,0.85-5.91,1.87c0.84-0.05,1.63,0.31,1.63,0.31
			c-1.9,0.35-4.57,1.02-5.96,2.02c0.96,0.02,1.78,0.38,1.78,0.38c-2.06,0.15-4.4,1.03-5.03,1.25c0,0,0,0-0.01,0
			c-2.18,0.78-4.49,1.23-7.04,1.02c8.62,3.69,17.29,1.63,19.86-0.03c-2.72,0.71-9.84,0.84-11.96,0.31c1.26-0.32,2.16-0.89,3.5-1.31
			c2.66-0.84,4.93-0.68,6.13-0.48c0.62,0.1,1.68,0.09,2.18-0.29l-0.41-0.14c-1.31-0.74-3.68-0.81-5.07-0.66
			c0.38-0.23,0.77-0.46,1.14-0.7h0c1.29-0.8,3.48-0.69,4.74-0.54c0.66,0.08,1.68,0.05,2.28-0.25L111.06,83.7z"/>
		<path class="st0" d="M137.09,84.33c0.04,0.01,0.08,0.03,0.12,0.05C137.13,84.34,137.09,84.33,137.09,84.33"/>
		<path class="st0" d="M139.37,88.57c0,0,0.1-0.03,0.25-0.23c0.54-0.62,0.57-1.52,0.33-2.2c0.02,0.73-0.09,1.03-0.23,1.23
			c-0.3-0.8-1.03-2.31-2.51-2.98C137.61,84.61,138.96,85.56,139.37,88.57"/>
		<path class="st0" d="M199.72,84.36c0.04-0.02,0.08-0.04,0.12-0.06C199.84,84.3,199.8,84.32,199.72,84.36"/>
		<path class="st0" d="M225.87,92.96c0.18,0.95,0.45,2.33,0.16,3.55c-0.1,0.36-0.46,0.56-0.83,0.48c-1.45-0.38-1.93-1-1.93-1
			c1.32-0.12,1.36,0.06,1.25-0.85c-0.09-0.93-0.46-2.59-0.6-2.98c-0.14-0.38-0.14-0.3-0.41-0.34c-0.26-0.04-0.87-0.1-1.36-0.46
			c0.88,0.05,1.34-0.1,1.59-0.24c0.17-0.1,0.27-0.3,0.28-0.5c0.03-1.69-1.26-4.2-1.52-4.56c0.27-0.45,0.85-0.31,1.36,0.46
			c0.5,0.77,1.25,1.74,1.57,3.27c0.31,1.54-0.29,1.44-0.82,1.58c1.73,0.18,2.39,0.09,1.95-1.66c-0.35-1.39-1.33-2.82-2.36-3.89
			c-0.58-0.61-0.2-1.06,0-1.54c0.24-0.6-0.19-1.1-0.7-0.97c-0.42,0.12-0.91,0.22-2.27-0.18c-0.05-0.01-0.1-0.03-0.15-0.04
			c-2.3-0.7-3.04-0.99-4.88-0.69c0.45,0.1,0.96,0.3,0.96,0.3c-1.47,0.05-2.58,0.29-3.01,0.39c-0.11,0.04-0.91,0.06-1.02,0.02
			c-0.69-0.25-2.98-1.32-5.05-1.8c-0.01,0-0.02,0.02-0.03,0.02c-1.69-0.4-3.18-0.51-4.56-0.35c1.94-1.81,5.67-3.42,7.7-3.68
			c-3.19,0.07-8.24,2.4-10.5,4.82c1.71-0.56,5.54-1.07,7.58-0.17c0.2,0.04,0.36,0.07,0.48,0.09c1.52,0.56,3.21,1.69,3.84,2.04
			c0.11,0.07,0.24,0.09,0.36,0.08c2.3-0.15,2.95-0.84,3.48-1.03c0.56-0.2,2.92,0.04,4.56,0.4c0.31,0.07,0.58,0.14,0.82,0.19
			c0.06,0.01,0.11,0.03,0.16,0.03c0.36,0.08,0.63,0.1,0.86,0.1h0.01c0.3,0,0.49-0.04,0.62-0.06h0.01c0.1,0,0.19,0.03,0.18,0.12
			c0,0.02-0.01,0.04-0.02,0.06c-0.03,0.05-0.12,0.18-0.29,0.34c-0.28,0.25-0.78,0.58-1.54,0.76h-0.02
			c-0.83,0.21-1.72,0.04-2.57-0.27c-1.4-0.52-2.93-0.38-2.93-0.38s1.54,0.15,1.96,2.53c0.14,0.79,0.21,1.56,0.22,2.06
			c0,0.32-0.23,0.61-0.55,0.63c-1.59,0.16-2.72-0.54-3.13-1.11c-1.1-1.52-0.48-3.06-0.43-3.17c-1,0.82-1.29,1.74-1.61,3.52
			c-0.08,0.43-0.14,0.8-0.22,1.14c-0.22,1.66-0.53,2.9-1.45,3.5c-0.04,0.03-0.09,0.05-0.13,0.08c-0.09,0.05-0.11-0.04-0.08-0.26
			c0.03-0.41,0.2-1.25,0.17-2.27c0.01,0,0-0.01,0-0.01c-0.22-2.61-0.45-3.01,0.09-3.75c0.37-0.5,0.93-0.85,1.39-1.26
			c0.38-0.35,0.25-0.95-0.25-1.12c-1.13-0.36-2.65-1.29-3.91-1.75c-0.44-0.16-0.89-0.24-1.37-0.29h-0.03c-0.02,0-0.04,0-0.07,0
			c-0.13-0.01-0.28-0.01-0.41-0.02h-0.06c-1.04,0-2.14,0.2-3.19,0.42c-2.77,0.74-4.78,3.81-3.31,7.82
			c-0.79-0.45-1.28-1.01-1.57-2.19c0,0-0.27,0.22-0.62,1.09c0,0-0.44-0.13-0.77-0.91c-0.25,0.84,0.17,2.27,1.27,2.84
			c0,0-0.15-0.93,0.09-1.35c0.73,1.24,1.82,1.91,3.15,2.09c0.19,0.02,0.38,0.04,0.57,0.05h0.01c0,0-3.16,0.68-4.9-0.43h-8.68
			l-2.95,1.19l-1.93,2.15h21.62l0,0c2.96,0,3.22-1.57,3.22-3.34l0,0l0,0h-3.65c-0.54-0.05-3-0.07-3.99-1.71
			c-0.54-0.9-0.51-2.39,0.1-3.72c0.77-1.18,3.35-0.91,4.34-0.27c-0.14-1.17-1.08-1.74-2.01-1.85c0.81,0.41,0.7,0.77,0.7,0.77
			c-0.91-0.57-1.4-0.53-1.85-0.36c0.36-0.47,1.15-0.87,1.65-0.98c0.91-0.24,1.87-0.24,2.43-0.27c0.13,0,0.26,0,0.4,0.01l0.17,0.02
			c0.04,0,0.08,0.01,0.11,0.01c0.06,0.01,0.12,0.02,0.17,0.04c0.04,0.01,0.07,0.02,0.11,0.02c0.58,0.13,1.19,0.38,1.74,0.64
			c0.86,0.42,1.03,0.52,0.88,1.63c-0.11,0.77-0.09,3.47,0.08,5.48h-0.01c0.01,0.02,0.01,0.03,0.01,0.05
			c0.01,0.17,0.02,0.33,0.04,0.49c0.01,0.01,0.01,0.01,0.01,0.03c0.13,1.97-0.56,2.59,0.12,3c0.73,0.46,1.9-0.72,1.9-0.72
			c1.02,2,1.49,2.65,3.06,2.97c0.88,0.18,1.55,0.21,1.96,0.21c0.27,0,0.53,0.13,0.64,0.38c0.58,1.38,2.4,1.58,3.62,1.76
			c0.87,0.13,1.73,0.16,2.24,0.18c0.26,0,0.49-0.15,0.6-0.39c0.15-0.33,0.24-0.6,0.31-0.81c0.09-0.3,0.38-0.49,0.69-0.45
			c0.31,0.03,0.57,0.04,0.74,0.02c0.25-0.01,0.47-0.15,0.57-0.38c1.05-2.42,0.33-4.81-0.25-5.9
			C225.74,91.86,225.67,91.85,225.87,92.96 M222.61,92.26c0.43-0.02,0.66,0.7,0.87,1.44c0.18,0.67,0.2,1.36-0.08,1.52
			c-0.58,0.32-2.05-0.17-3.1-1.08c-1.05-0.92-0.66-3.06-0.42-2.99C220.41,92.17,220.79,92.09,222.61,92.26 M220.27,86.4
			c0.72,0.03,0.97-0.19,1.33,0.09c0.64,0.89,1.11,2.53,0.99,3.13c-0.1,0.53-0.61,0.72-1.86,0.33c-1.25-0.39-1.22-1.49-1.56-3.09
			C219.01,86.09,219.56,86.39,220.27,86.4 M215.41,96.78c-1.77-0.22-2.61-2.05-1.95-3.24c0.23,1.52,2.16,2.05,2.83,2.43
			C216.95,96.33,217.17,97.01,215.41,96.78 M217.27,94c-1.58,0.09-2.47-0.64-2.78-1.87c-0.21-0.8-0.39-2.29-0.21-2.63
			c1.06,1.22,2.64,2.06,4.26,1.38C218.83,92.8,218.45,93.93,217.27,94 M222.62,98.68c-0.56,0.14-2.09-0.05-2.86-0.3
			c-1.65-0.55-1.25-1.58-1.14-2.4c0.11-0.71,0.56-0.65,0.65-0.22c0.31,1.54,0.66,1.3,3.29,1.97
			C222.96,97.77,223.26,98.52,222.62,98.68"/>
		<path class="st0" d="M235.34,85.05c-1.89,0.16-4.75,0.46-6.61,0.91l-0.46,0.11c0.5,0.37,1.56,0.39,2.18,0.29
			c1.19-0.2,3.46-0.37,6.13,0.48c1.34,0.42,2.94,1.17,4.9,1.48c-2.12,0.52-9.39,0.63-13.36-0.49c2.57,1.65,11.24,3.72,19.86,0.03
			c-2.54,0.21-4.86-0.24-7.04-1.02c0,0,0,0,0,0c-0.63-0.22-2.97-1.09-5.03-1.25c0,0,0.82-0.35,1.78-0.37
			c-1.39-1-4.05-1.67-5.96-2.02c0,0,0.79-0.36,1.63-0.31c-1.38-1.03-4.45-1.76-5.91-1.87c0,0,0.67-0.47,1.33-0.41
			c-3.23-1.65-9.34-2.31-14.69-0.17c4.84-1.26,10.72-0.59,12.53,0.28c-0.68,0.12-2.68,0.52-3.67,0.91l0.21,0.08
			c0.62,0.2,1.33,0.13,1.98,0.09c3.78-0.24,5.77,0.6,6.16,0.83c-1.19-0.04-3.93,0.64-5.36,1.07l-0.35,0.09
			c0.59,0.31,1.62,0.37,2.28,0.26C232.22,83.29,234.96,84.82,235.34,85.05"/>
		<path class="st0" d="M227.02,69.72c-1.59,0.33-2.22,2.49-1.03,2.46c1.12-0.02,2.24-1.51,1.8-3.05c0.22-0.1,0.52-0.22,0.83-0.28
			c0,0-0.36-0.07-0.95-0.04h-0.09c-0.93,0-3.41,0.68-3.96,3.36C224.52,70.61,226.39,69.56,227.02,69.72 M226.67,71.34
			c-0.36,0.07-0.45-0.67,0.55-1.06C227.29,70.69,227.03,71.28,226.67,71.34"/>
		<path class="st0" d="M231.71,69.12c-1.49,0.23-2.19,2.19-1.08,2.23c1,0.04,2.09-1.21,1.85-2.61c0.19-0.12,0.5-0.3,0.89-0.38
			c0,0-0.09-0.05-1-0.05v0c-0.79-0.09-3.26,0.35-3.93,2.9C229.34,69.82,231.13,68.93,231.71,69.12 M231.19,70.65
			c-0.37,0.03-0.36-0.72,0.68-0.98C231.89,70.08,231.55,70.63,231.19,70.65"/>
		<path class="st0" d="M236.21,68.53c-1.46,0.13-2.25,1.99-1.19,2.09c0.88,0.08,1.89-0.84,1.96-2.03c0.49-0.78,4.23-1.46,4.86-1.63
			c0.64-0.18-5.73,0.83-5.73,0.83c-0.53,0.07-1.17,0.24-1.77,0.64c-0.6,0.4-1.14,1.01-1.45,1.93
			C233.87,69.07,235.66,68.32,236.21,68.53 M235.76,69.91c-0.37,0.02-0.36-0.73,0.68-0.99C236.46,69.34,236.12,69.89,235.76,69.91"
			/>
		<path class="st0" d="M222.04,70.89c-1.67,0.41-2.26,2.73-0.99,2.66c1.19-0.08,2.33-1.73,1.77-3.36c0.24-0.12,0.53-0.25,0.76-0.27
			c0,0-0.4-0.04-0.89-0.03v0c-0.91-0.01-3.69,0.77-4.17,3.75C219.41,71.94,221.36,70.73,222.04,70.89 M221.89,72.49
			c-0.4,0.07-0.51-0.74,0.62-1.16C222.59,71.77,222.29,72.42,221.89,72.49"/>
		<path class="st0" d="M216.44,73.24c-0.02,0.06-0.5,1.03,0.57,0.88c0.73-0.09,1.13-0.8,0.79-2.01v0c0.13-0.17,0.29-0.37,0.48-0.53
			c0,0-0.25,0.03-0.62,0.13c-0.39,0.07-1.12,0.25-1.76,0.7c-0.64,0.45-1.17,1.17-1.18,2.33C215.57,73.34,216.38,73.24,216.44,73.24
			 M217.5,72.51c0.16,0.34,0.07,0.91-0.24,1.06C216.97,73.72,216.7,73.11,217.5,72.51"/>
		<path class="st0" d="M219.02,74.92c0.96,2.06,3.33,1.76,4.6,1.53c0.67-0.13,1.17-0.29,1.17-0.29c-0.43-0.02-0.82-0.1-1.04-0.16
			c0.18-1.17-0.83-2.02-2.13-1.8c1.33,0.31,1.42,1.53,1.42,1.53C222.21,74.55,218.7,73.65,219.02,74.92"/>
		<path class="st0" d="M228.44,75.5c0.62-0.11,1.27-0.26,1.27-0.26c-0.46-0.04-0.89-0.13-1.14-0.2c0.17-1.12-0.8-1.94-2.04-1.74
			c1.29,0.31,1.36,1.49,1.36,1.49c-0.79-1.14-4.17-2.05-3.87-0.83C224.91,75.98,227.2,75.71,228.44,75.5"/>
		<path class="st0" d="M233.52,74.34c0.62-0.15,0.98-0.32,0.98-0.32c-0.38,0-0.69-0.06-0.89-0.11c0.11-1.15-0.92-1.91-2.16-1.61
			c1.3,0.21,1.47,1.38,1.47,1.38c-0.87-1.08-4.32-1.73-3.92-0.53C230.05,75.08,232.3,74.64,233.52,74.34"/>
		<path class="st0" d="M217.44,76.41c-0.17-0.88-1.35-1.2-1.94-0.63c-0.51,1.12,1.48,1.65,3.31,1.5c0.42,0,0.63-0.04,0.63-0.04
			c-0.26-0.09-0.52-0.31-0.68-0.47c-0.08-0.66-0.29-1.3-1.29-1.36C217.88,75.68,217.44,76.41,217.44,76.41"/>
		<path class="st0" d="M240.84,69.44c-1.11-0.45-3.52-0.64-3.8,1.37c0.33-0.68,1.62-1.52,2.91-0.99c0,0-2.2,0.01-2.09,1.19
			c0.05,0.55,1.2,0.79,2.4-0.21c0.44-0.37,1.11-0.83,1.68-0.93c0.97-0.19,4.17-1.19,4.55-1.39C244,69.2,241.59,69.74,240.84,69.44"
			/>
		<path class="st0" d="M242.67,72.65c-1.46-0.01-3.65,0.99-4.84,0.54c0.17-0.96-0.62-1.71-1.73-1.63c1.14,0.38,1.11,1.46,1.11,1.46
			c-0.62-1.1-3.63-2.2-3.45-1.06c0.4,1.14,1.32,1.57,2.23,1.71h0C238.92,74.23,241.47,72.94,242.67,72.65"/>
		<path class="st0" d="M212.61,75.23c0,0-0.13,0.98,0.75,0.49c0.58-0.32,0.7-0.99,0.03-1.81h0c0.06-0.18,0.13-0.39,0.23-0.57
			c0,0-0.19,0.1-0.47,0.3h0c-0.61,0.37-2.22,1.54-1.51,3.32C211.92,75.56,212.61,75.23,212.61,75.23 M213.26,74.37
			c0.19,0.22,0.23,0.67,0.03,0.83C213.09,75.38,212.78,74.97,213.26,74.37"/>
		<path class="st0" d="M214.02,77.68c-0.13-0.33-0.93-0.63-1.27-0.35c-0.65,0.52,0.62,1.03,1.55,0.84c0.51-0.11,0.64-0.15,0.64-0.15
			c-0.03,0-0.28-0.11-0.28-0.11c0.17-0.5-0.07-0.95-0.78-0.91C214.41,77.21,214.02,77.68,214.02,77.68"/>
		<path class="st0" d="M111.01,72.17c1.19,0.03,0.56-2.13-1.03-2.46c0.63-0.16,2.5,0.9,3.4,2.45c-0.57-2.77-3.2-3.41-4.06-3.36
			c-0.58-0.03-0.94,0.04-0.94,0.04c0.32,0.05,0.61,0.17,0.83,0.27C108.76,70.67,109.88,72.15,111.01,72.17"/>
		<path class="st0" d="M106.37,71.35c1.11-0.04,0.41-2.01-1.08-2.23c0.58-0.19,2.37,0.7,3.28,2.1c-0.67-2.55-3.15-2.99-3.94-2.9
			c-0.91-0.01-1,0.04-1,0.04c0.4,0.08,0.71,0.26,0.89,0.38C104.29,70.14,105.37,71.38,106.37,71.35"/>
		<path class="st0" d="M115.95,73.54c1.27,0.07,0.69-2.24-0.98-2.67c0.68-0.14,2.62,1.07,3.51,2.76c-0.49-2.98-3.26-3.77-4.17-3.75
			c-0.49,0-0.89,0.04-0.89,0.04c0.23,0.01,0.53,0.14,0.76,0.26C113.61,71.81,114.76,73.47,115.95,73.54"/>
		<path class="st0" d="M95.15,66.96c0.62,0.17,4.38,0.85,4.86,1.63c0.07,1.19,1.08,2.12,1.96,2.03c1.07-0.11,0.27-1.97-1.18-2.09
			c0.55-0.21,2.34,0.54,3.3,1.84c-0.61-1.85-2.16-2.45-3.2-2.58l0,0C100.89,67.79,94.51,66.78,95.15,66.96"/>
		<path class="st0" d="M96.74,70.8c1.2,1,2.35,0.77,2.39,0.22c0.12-1.19-2.09-1.2-2.09-1.2c1.3-0.53,2.58,0.31,2.91,0.99
			c-0.27-2.01-2.69-1.82-3.8-1.37c-0.75,0.3-3.15-0.23-5.65-0.96c0.38,0.2,3.58,1.2,4.55,1.38C95.62,69.98,96.3,70.43,96.74,70.8"/>
		<path class="st0" d="M113.37,76.45c1.28,0.23,3.64,0.53,4.6-1.53c0.01-0.05,0.02-0.09,0.02-0.13c0.43-0.01,0.82,0.15,1.14,0.3
			c-0.15-0.27-0.82-0.66-1.6-0.76c-0.19-0.03-0.41-0.03-0.67-0.01c0,0-0.01,0-0.02,0l0,0c-1.02,0.13-2.41,0.72-2.89,1.41
			c0,0,0.09-1.23,1.42-1.54c-0.75-0.75-2.27-0.88-3.26-0.8c-0.05,0-0.09,0-0.14,0.01h-0.01c-0.03,0.01-0.06,0.01-0.09,0.01
			c-0.18,0.02-0.34,0.05-0.46,0.09c-0.9,0.23-1.92,0.73-2.3,1.29c0,0,0.08-1.18,1.36-1.49c-0.5-0.7-2.13-0.85-3.28-0.8
			c-0.99-0.02-2.56,0.49-3.11,1.18c0,0,0.17-1.17,1.47-1.39c-0.68-0.7-2-0.91-2.95-0.81c-0.13,0.01-0.27,0.03-0.41,0.06
			c-0.07,0.02-0.15,0.03-0.22,0.05c-0.01,0-0.02,0.01-0.02,0.01h-0.01l0,0c-0.84,0.25-1.84,0.83-2.17,1.41c0,0-0.02-1.08,1.11-1.46
			c-1.11-0.08-1.9,0.68-1.73,1.63c-1.18,0.45-3.38-0.55-4.83-0.54c1.19,0.29,3.74,1.57,6.67,1.02h0c0.74-0.11,1.48-0.42,1.95-1.14
			c0.15-0.24,0.37-0.37,0.59-0.46c0.55-0.23,1.18-0.11,1.5,0.17c-1-0.01-1.75,0.69-1.65,1.68c-0.2,0.05-0.51,0.11-0.89,0.11
			c0,0,0.36,0.17,0.98,0.32c1.1,0.27,3.05,0.65,4.19-0.71l0.01,0.01c0.03-0.04,0.05-0.08,0.08-0.11c0.02-0.03,0.03-0.04,0.05-0.06
			c0.16-0.21,0.32-0.36,0.5-0.44c0.68-0.3,1.56,0.03,1.75,0.25c-1.04,0.02-1.79,0.77-1.63,1.76c-0.25,0.06-0.68,0.16-1.14,0.2
			c0,0,0.65,0.15,1.27,0.26c1.08,0.18,2.97,0.41,4.03-0.88h0.01c0.19-0.28,0.52-0.55,0.8-0.65c0.5-0.18,1.07,0.01,1.46,0.19
			c-1.03,0.05-1.77,0.82-1.61,1.83c-0.23,0.06-0.61,0.15-1.04,0.16C112.21,76.16,112.71,76.31,113.37,76.45"/>
		<path class="st0" d="M119.99,74.12c1.1,0.15,0.57-0.88,0.57-0.88s0.85,0.06,1.73,1.49c0-2.32-2.16-2.88-2.94-3.03
			c-0.37-0.09-0.62-0.13-0.62-0.13c0.19,0.16,0.35,0.36,0.48,0.54C118.85,73.32,119.26,74.02,119.99,74.12"/>
		<path class="st0" d="M123.64,75.72c0.88,0.49,0.75-0.49,0.75-0.49s0.69,0.34,0.98,1.73c0.72-1.79-0.9-2.95-1.51-3.32
			c-0.29-0.2-0.48-0.3-0.48-0.3c0.1,0.18,0.18,0.39,0.23,0.57C122.95,74.73,123.07,75.4,123.64,75.72"/>
		<path class="st0" d="M123.11,77.01c-0.72-0.03-0.96,0.41-0.78,0.91c0,0-0.25,0.11-0.28,0.11c0,0,0.13,0.04,0.64,0.14
			c0.78,0.15,1.77-0.16,1.73-0.57c0.14-0.03,0.35-0.05,0.55,0.01c0,0-0.38-0.39-1.04-0.39c-0.08,0-0.15,0-0.23,0.02h-0.02h0
			c-0.31,0.06-0.63,0.25-0.71,0.44C122.98,77.68,122.59,77.21,123.11,77.01"/>
		<path class="st0" d="M120.7,75.5c-0.02,0-0.03,0-0.05,0c0,0-0.01,0-0.02,0h0c-0.49,0.04-0.97,0.37-1.07,0.91c0,0-0.44-0.73-0.04-1
			c-1.01,0.06-1.21,0.7-1.29,1.36c-0.16,0.15-0.43,0.38-0.68,0.47c0,0,0.21,0.04,0.64,0.04c1.67,0.14,3.47-0.3,3.37-1.23
			c0.44,0.06,0.81,0.28,1.05,0.56C122.61,76.61,122.08,75.39,120.7,75.5"/>
		<path class="st0" d="M197.78,88.57c0.41-3.02,1.76-3.96,2.16-4.19c-1.48,0.67-2.21,2.18-2.51,2.98c-0.14-0.19-0.25-0.49-0.23-1.23
			c-0.25,0.67-0.21,1.57,0.33,2.2C197.69,88.54,197.78,88.57,197.78,88.57"/>
		<path class="st0" d="M146.62,92.3h-6.1c-1,0.47-2.72,1.03-5.17,0.87c0,0,1.11-0.37,1.89-0.87c0.73-0.38,1.32-0.95,1.66-1.66
			c0.33,0.26,0.18,1.35,0.18,1.35c1.11-0.57,1.54-1.99,1.27-2.83c-0.33,0.78-0.78,0.9-0.78,0.9c-0.18-0.96-0.66-1.16-0.66-1.16
			c-0.27,1.09-0.75,1.81-1.52,2.26c1.45-4-0.55-7.08-3.32-7.81c-1.74-0.4-3.62-0.67-5.12-0.13c-1.27,0.46-1.35,0.5-1.85,0.85
			c-0.79,0.54-0.8,1.29-0.59,2.55c0.1,0.56,0.33,1.55,0.36,2.92v0.01c0,0.03,0.01,0.08,0.01,0.12c0.09,1.99-0.37,2.73-0.1,4.12
			c0.01,0.08,0.03,0.16,0.05,0.25c0.08,0.32-0.2,0.29-0.3,0.22c-0.03-0.03-0.06-0.06-0.1-0.08v0c-0.34-0.28-0.8-0.85-1.08-1.74
			c0-0.01,0-0.02,0-0.02c-0.27-0.84-0.31-1.94-0.33-3.12c-0.01-0.98-0.21-1.88-0.62-2.59c-0.15,0.31-0.36,0.65-0.65,0.99
			c-0.22,0.25-0.49,0.51-0.81,0.76c-0.26,0.22-0.58,0.42-0.94,0.62c-0.02,0-0.03,0.02-0.05,0.03c-0.41,0.24-0.88,0.37-1.41,0.33
			c-1.57-0.11-1.54-2.13-1.2-3.16c0.08-0.11,0.16-0.21,0.23-0.31c0,0,0.01,0,0.01-0.01c0.03-0.03,0.06-0.05,0.08-0.08
			c0.23-0.23,0.47-0.43,0.67-0.57c1.11-0.72,2.28-0.52,2.28-0.52c-1.46-0.88-3.2-0.57-4.83-0.17c-0.73,0.2-1.68,0.35-2.31,0.25
			c-0.49-0.09-0.92-0.31-1.16-0.57c-0.03-0.04-0.06-0.07-0.09-0.11c-0.06-0.1-0.13-0.34,0.25-0.22c0.07,0.02,0.16,0.04,0.26,0.05
			c0.17,0.01,0.4,0.01,0.73-0.04c0.25-0.05,0.56-0.12,0.89-0.2c0.03,0,0.06-0.01,0.08-0.01c0.01-0.01,0.02-0.01,0.04-0.01
			c1.28-0.29,2.55-0.64,3.6-0.64c0.26,0,0.51,0.01,0.74,0.07c1.89,0.39,3.41,1.05,5.2,0.22c0.91-0.43,1.95-1.12,2.68-1.46h0.01
			c2.04-0.9,5.87-0.4,7.58,0.17c-2.26-2.42-7.31-4.75-10.5-4.82c2.03,0.26,5.76,1.87,7.7,3.68c-1.58-0.18-3.29-0.02-5.29,0.54
			c0-0.01,0-0.01,0-0.01c-1.6,0.46-3.39,1.4-4.06,1.64c-0.12,0.05-0.91,0.02-1.03-0.02c-2.99-0.84-4.26-0.73-6.34-0.14
			c-0.04,0.01-0.08,0.02-0.12,0.04c-0.03,0-0.05,0-0.08,0.01c-1.84,0.53-2.71,0.07-3.06,0.29c-0.17,0.11-0.4,0.64,0.11,1.36
			c0.13,0.26,0.08,0.58-0.14,0.78c-1.19,1.1-2.39,2.72-2.79,4.31c-0.24,0.93-0.17,1.4,0.22,1.6l0.01,0.01
			c0.03,0.02,0.05,0.04,0.08,0.05c0.06,0.03,0.12,0.06,0.2,0.09c0.3,0.24,0.18,0.49,0.05,0.75c-0.03,0.04-0.05,0.09-0.07,0.13
			c-0.03,0.05-0.05,0.1-0.07,0.15c-0.01,0-0.01,0.01-0.02,0.03c0,0,0,0.03-0.01,0.03c-0.54,1.2-1.04,3.36-0.09,5.54
			c0.1,0.22,0.32,0.38,0.56,0.39c0.18,0,0.44,0,0.75-0.03c0.31-0.04,0.59,0.15,0.68,0.45c0.07,0.21,0.07,0.24,0.21,0.58
			c0.11,0.24,0.45,0.41,0.71,0.44c0.66,0.07,1.36,0.13,2.22,0.01c1.22-0.18,3.04-0.38,3.62-1.76c0.11-0.24,0.37-0.38,0.63-0.38
			c0.42,0,1.08-0.04,1.96-0.22c1.57-0.31,2.05-0.98,3.06-2.97c1.26,0.92,2.08,0.74,2.38,0.39c0.3-0.34-0.61-0.66-0.34-2.41
			c0.01-0.08,0.02-0.14,0.04-0.21c0-0.03,0.01-0.06,0.01-0.09c0.29-2.2,0.19-5.13,0.07-6.01c-0.15-1.11,0.02-1.22,0.88-1.63
			c0.86-0.41,1.86-0.78,2.7-0.73c0.56,0.03,1.52,0.03,2.43,0.27c0.27,0.1,0.69,0.41,0.91,0.55c-1.04-0.03-2.25,0.52-2.41,1.86
			c0.63-0.4,1.89-0.66,2.93-0.5c-0.09-0.14-0.33-0.42-0.93-0.53c1.07-0.19,1.84,0.28,2.33,1.3c0.61,1.32,0.65,2.81,0.1,3.71
			c-0.83,1.39-2.14,1.62-3.26,1.66h-4.52c0,1.76,0.26,3.33,3.22,3.33l0,0h20.7l-1.17-1.44L146.62,92.3z M117.01,86.46
			c0.72-0.02,1.27-0.32,1.1,0.46c-0.21,0.92-0.31,1.6,0.19,2.31c-0.67,0.5-1.4,0.76-1.93,0.82c-0.12,0.01-0.23,0.02-0.33,0.03h-0.01
			C114.23,90.08,115.84,86.48,117.01,86.46 M115.93,92.04c0.84-0.29,1.7-0.66,2.38-1.08c-0.3,0.85-0.35,1.51,0.31,2.5v0v0.01
			c-0.54,1.11-1.32,1.67-2.07,1.91c-0.04,0.01-0.08,0.03-0.13,0.04C114.64,95.85,114.8,92.99,115.93,92.04 M114.6,86.77
			c-0.86,1.22-2.21,3.81-0.55,3.97c-0.39,0.25-0.96,0.44-1.66,0.21C111.07,90.52,112.33,87.89,114.6,86.77 M111.46,94.9
			c0.23-1.5,1.19-2.79,1.58-2.36c-0.35,0.7-1.78,4.2,0.76,3.69C111.67,96.91,111.22,96.41,111.46,94.9 M114.06,98.89
			c-0.31-0.39-0.28-1.01,0.15-1.55c0.16-0.19,0.37-0.38,0.64-0.54c-0.5,1.01-0.1,2.15,0.59,2.21c0.03,0,0.07,0,0.12,0
			C115.07,99.15,114.34,99.25,114.06,98.89 M118.81,97.77l-0.01,0.01c-1.93,2.15-3.59-0.02-2.79-1.38c0.88-0.12,1.91-0.45,2.34-1.34
			c0,0,0.27,1.12,0.83,1.81C119.11,97.22,118.98,97.52,118.81,97.77 M120.08,91.29c1.3,0.15,2.64-0.34,3.63-2.09
			c0.19,0.33-0.23,2.44-0.43,3.26c-0.23,0.9-0.66,1.54-1.5,1.77c-0.01,0.01-0.01,0.01-0.02,0.01
			C120.02,94.44,119.55,92.28,120.08,91.29 M122.22,96.61c-1.55,0.13-1.65-1.17-1.65-1.17c0.11,0.02,0.22,0.03,0.33,0.05
			c1.16,0.1,2.84-0.45,3.27-2.95c-0.02,0.47,0.38,1.26,0.38,1.26C124.09,95.07,123.77,96.49,122.22,96.61"/>
		<path class="st0" d="M227.88,92.3c0.2,0.68,0.55,2.14,0.42,3.33h12.18c2.73,0,5.38-0.94,7.5-2.67l0.83-0.67H227.88z"/>
		<path class="st0" d="M108.81,92.3H88.29l0.82,0.67c2.12,1.72,4.77,2.67,7.5,2.67h12.61c-0.02-0.84,0.08-1.89,0.23-2.34
			C109.63,92.68,109.82,92.3,108.81,92.3"/>
		<path class="st4" d="M152.44,62.9v18.57c0,7.57,2.51,14.88,12.93,20.29c2.02,0.97,3.04,1.32,3.04,1.32s1.03-0.35,3.04-1.32
			c10.42-5.42,12.93-12.72,12.93-20.29V59.69C184.39,59.69,167.12,58.75,152.44,62.9"/>
		<path class="st1" d="M179.77,78.34l-0.37-0.2c-0.19-0.11-0.41-0.22-0.64-0.34l-0.41-0.22c-1.45-0.8-2.25-0.71-2.98-0.53
			c-2.19,0.57-4.02,1.16-4.02,1.16s0.23,0.4,0.71,0.33c1.33-0.09,1.89-0.24,3.24,0.87c0.87,0.71,0.54,1.15,0.2,1.89
			c-0.3,0.65-2.67,4.86-3.42,6.08c-0.96,1.58-1.33,2.31-3.91,2.75c-2.66,0.45-2.83,0.39-3.24-0.01c-0.46-0.45-0.42-0.79,0.01-1.7
			c0.45-0.91,9.74-17.82,10.14-18.61c0.4-0.78,0.53-1.32,0.18-1.86c-0.3-0.47-0.78-1.13-1.06-1.45c-0.3-0.32-0.75-0.74-2.82-0.62
			c-1.97,0.12-5.03,0.61-6.24,0.81c-1.35,0.22-3.56,0.39-4.96,2.67c-1.53,2.5-3.14,5.48-3.47,6.19c-0.51,1.12,0.16,1.5,1.54,2.25
			c1.45,0.8,2.25,0.71,2.98,0.53c2.83-0.71,4.03-1.15,4.03-1.15s-0.16-0.38-0.71-0.34c-1.55,0.11-1.91-0.03-3.59-1.17
			c-0.54-0.38-0.6-0.76-0.43-1.26c0.09-0.26,0.89-1.8,1.22-2.43c0.64-1.23,1.41-2.69,2.03-3.29c0.62-0.6,1.41-0.79,2.55-0.96
			c0.53-0.08,2.6-0.39,3.15-0.4c0.65-0.02,0.94,0.1,1.41,0.8c0.21,0.32,0.07,0.61-0.19,1.05c-0.24,0.38-9.67,17.19-9.67,17.19
			l-0.77,1.54c0,0,0,0.01-0.01,0.01v0.01c-0.25,0.48-0.12,0.9,0.25,1.37c1.64,2.12,2.72,2.5,3.63,2.47c0.9-0.04,2.1,0.04,6.69-0.89
			c4.24-0.85,4.23-0.93,5.42-2.9c1.17-1.97,2.79-5.33,3.22-6.21v0v0c0.37-0.76,0.6-1.19,0.83-1.71
			C180.64,79.3,180.42,78.72,179.77,78.34"/>
		<path class="st2" d="M178.75,49.83c0.01,0,0.02,0,0.04,0c0,0.03,0.01,0.05,0.01,0.08C178.79,49.89,178.77,49.86,178.75,49.83"/>
		<path class="st0" d="M152.31,62.42L152.31,62.42l-0.36,0.1v0.38c-0.01,3.68-0.04,7.35-0.02,11.03l0.01,5.51
			c0.01,1.83,0,3.7,0.25,5.56c0.46,3.71,1.88,7.36,4.3,10.23c2.4,2.89,5.56,4.98,8.88,6.54c-1.56-0.98-3.13-1.93-4.53-3.11
			c-1.4-1.16-2.72-2.42-3.83-3.85c-1.09-1.44-1.99-3.02-2.65-4.69c-0.66-1.67-1.06-3.44-1.26-5.23c-0.22-1.79-0.17-3.6-0.16-5.45
			l0.02-5.51c0.02-3.55-0.01-7.11-0.02-10.66c3.94-1.25,8-2.13,12.11-2.8C160.78,60.83,156.51,61.42,152.31,62.42"/>
		<path class="st0" d="M183.65,89.28c0.66-1.91,1-3.9,1.14-5.9c0.12-2.02,0.07-3.97,0.1-5.95l0.02-5.91
			c0.01-3.94-0.02-7.88-0.05-11.83v-0.46l-0.44-0.01c-2.16-0.02-4.28,0.05-6.42,0.16c-2.13,0.11-4.26,0.27-6.38,0.48
			c2.13-0.06,4.26-0.06,6.39-0.01c1.97,0.05,3.95,0.13,5.91,0.28c-0.03,3.79-0.05,7.59-0.04,11.39l0.02,5.91
			c0,1.97,0.07,3.96-0.02,5.89c-0.19,3.86-1.3,7.71-3.58,10.86c-1.13,1.57-2.48,3-3.98,4.26c-1.52,1.25-3.16,2.32-4.86,3.32
			c1.77-0.86,3.5-1.83,5.1-3.02c1.58-1.21,3.06-2.58,4.26-4.18C182.03,92.98,183,91.18,183.65,89.28"/>
		<path class="st0" d="M159.67,35.62l0.5-0.38c0,0-1.06-0.11-1.84,0C158.33,35.23,159.55,35.32,159.67,35.62"/>
		<path class="st0" d="M175.22,41.63c0,0-0.59-1.04-0.92-1.93C174.44,40.9,174.4,41.37,175.22,41.63"/>
		<path class="st0" d="M166.03,35.41c0,0,1.21-0.35,2.46,0.44c0,0-0.17-0.72-0.57-1.09c-0.59-0.55-1.89-0.41-3.35-0.32
			c-1.02,0.08-1.56,0.02-1.56,0.02l0.03,0.59C163.27,37.22,165.92,36.86,166.03,35.41 M164.75,35.5c0.16,0.01,0.33,0.01,0.53,0
			c-0.08,0.29-0.38,0.54-0.89,0.53C164.64,35.94,164.76,35.72,164.75,35.5"/>
		<path class="st0" d="M170.25,34.22c0.33,0.12,2.37,0.98,3.68,3.37l-0.97,0.05c0,0,1.2,0.67,2.12,0.5
			C174.62,37.33,173.2,35.13,170.25,34.22"/>
		<path class="st0" d="M266.58,5.38V5.32l-0.01-0.07l-0.08-1.31l-0.94,0.92c-0.87,0.84-1.78,1.64-2.73,2.39
			c-0.56,0.46-1.14,0.91-1.72,1.35c-1.56,1.16-3.18,2.27-4.84,3.3c-0.83,0.52-1.67,1.02-2.52,1.51c-0.85,0.49-1.71,0.96-2.56,1.43
			c-0.43,0.24-0.87,0.46-1.3,0.69c-0.43,0.22-0.87,0.45-1.3,0.67c-0.44,0.22-0.88,0.44-1.32,0.66c-0.44,0.21-0.87,0.42-1.32,0.63
			c-1.77,0.84-3.56,1.65-5.36,2.44c-1.8,0.8-3.61,1.58-5.42,2.34c-1.8,0.77-3.62,1.53-5.44,2.28c-1.82,0.75-3.64,1.5-5.47,2.22
			l-0.32,0.12l-2.42,0.96c-0.46,0.17-0.92,0.36-1.38,0.54l-0.69,0.28c-0.22,0.09-0.45,0.18-0.68,0.28
			c-1.82,0.75-3.65,1.52-5.45,2.36l-0.67,0.33c-0.22,0.11-0.44,0.22-0.67,0.33c-0.45,0.22-0.89,0.44-1.33,0.68L209.97,33l-0.65,0.37
			L209,33.56l-0.32,0.19l-0.34,0.2l-0.3,0.18c-1.71,1.04-3.35,2.14-4.98,3.25c-1.63,1.1-3.25,2.22-4.87,3.34
			c-0.55,0.38-1.09,0.75-1.64,1.12c0,0,0,0,0,0c-1.07,0.73-2.15,1.48-3.22,2.21c-0.81,0.55-1.63,1.09-2.45,1.61
			c-0.74,0.46-1.48,0.9-2.23,1.23c-0.08,0.04-0.16,0.07-0.24,0.1c-0.41,0.17-0.83,0.3-1.27,0.38c-0.44,0.09-0.89,0.14-1.36,0.18
			c-0.24,0.02-0.49,0.03-0.73,0.03c-0.24,0.01-0.47,0.01-0.71,0.02c-0.37,0.01-0.75,0.01-1.12,0.01h-0.29
			c-3.04-0.03-4.75-3.28-4.75-3.28s0.62,0.12,1.46,0.04c0,0-1.49-2.19-2.66-3.84c0,0,1,0.06,1.73,0c0,0-2.06-3.33-3.74-5.26
			c-1.68-1.93-4.36-3.18-7.81-3.26c-0.42-0.01-0.83-0.02-1.24-0.02c-0.12,0-0.25,0-0.37,0.01c-0.12,0-0.24,0-0.36,0.01
			c-0.17,0-0.33,0.01-0.49,0.01c-0.07,0.01-0.14,0.01-0.2,0.01c-0.01,0-0.02,0-0.03,0c-0.16,0-0.31,0.01-0.46,0.02
			c-0.07,0.01-0.15,0.02-0.22,0.02c-0.13,0.01-0.25,0.03-0.38,0.04c-0.02,0-0.05,0-0.08,0.01c-0.23,0.02-0.45,0.05-0.66,0.1
			c-0.02,0-0.05,0-0.07,0.01c-0.03,0.01-0.05,0.02-0.08,0.02c0,0.01-0.01,0.01-0.03,0.01c-0.02,0-0.04,0.01-0.06,0.01
			c-0.42,0.09-1.26,0.23-1.51,0.38c-0.67,0.42-0.56,0.55-0.35,1.05c0,0-0.31,0.03-1.18,0.06c-0.72,0.04-1.48,0.04-1.84,0.19
			c-0.91,0.38-2.56,2.01-2.49,2.95c0.2,2.76,1.62,4.79,2.88,4.49c-1.3-0.25-1.99-2.5-2.12-3.81c-0.05-0.47-0.02-0.82,0.04-0.92
			c0.27-0.5,1.06-1.75,2.19-1.89c1.55-0.19,3.1-0.02,4.49-0.16c-0.63-1-0.79-1.11,0.46-1.56c0.55-0.22,1.5-0.38,2.95-0.38
			c0.65,0,1.4,0.03,2.27,0.1c4.38,0.36,6.62,3.15,8.99,6.86c0,0-0.78-0.02-2.02-0.4c0,0,1.01,2.09,2.6,4.07c0,0-1.11-0.22-2-0.7
			l1.49,2.73c0,0,1.05,1.73,1.95,2.71c-1.05,0.13-3,0.35-3.98-0.69c0.59,1.52,1.58,1.44,2.26,1.58c0.4,0.07,0.78,0.09,1.12,0.09
			c-0.01,0-0.01-0.01-0.01-0.01c0.02,0,0.04,0,0.05,0.01c0.62-0.01,1.13-0.09,1.36-0.07c1.33,0.43,2.53,2.32,2.53,2.32
			c-0.9,0.33-1.97,0.45-3.04,0.22c0-0.11-0.02-0.22-0.03-0.33c-0.16-0.91-0.91-1.59-1.64-1.87c0.42,0.51,0.76,1.28,0.77,2.6
			c0,0-1.6,0.24-2.52,0.05c-1.31-0.28-1.37-0.88-2.16-2.29c0,0-0.18,0.8,0.37,1.65c0.27,1.15,0.33,2.17-1.17,3.12
			c0,0-2.3-0.39-2.71-2.74c2.75-0.96,3.1-2.94,2.62-4.04c-0.21,0.88,0.03,2.37-2.76,2.96c-0.62-0.71-1.17-1.2-1.23-3
			c0,0,0.55-0.29,1.46-1.04c0,0,0.33,0.43,0.92,0.81c0.9,0.16,1.81-0.55,2.28-2.6c0,0,0.45,0.36,0.91,0.64c0,0-1.03-1.59-1.42-2.3
			c0.01,0.09,0.12,0.76,0.23,1.42c-0.02,0.32-0.28,1.24-1.57,1.97c-0.57-0.48-1.79-2.69-1.77-3.26c0,0,0.3-0.93,1.01-1.82
			c0,0-0.07-0.41-0.29-1.16c0.01,0.12,0.05,0.43-0.15,0.92c-0.26,0.64-1.03,1.36-2.06,2.06c-1.01-0.42-1.3-1.37-1.33-2.16
			c0,0,0.24-1.04,0.3-1.29c0.07-0.23-0.02-0.56-0.29-1.19c0,0,0.05,0.38,0,0.74c0,0,0.07,1.2-1.84,1.32c0,0,0.01-1.55-0.82-2.23
			c0,0-0.37,0.16-0.33,0.73c0,0-0.77-0.8-0.43-1.14c-0.21-0.15-0.8-0.37-1.87-0.72c-1.08-0.34-2.25-0.32-3.54-0.17
			c-1.12,0.14-1.65,0.55-1.47,1.59c0.24,1.28,0.73,2.08,1.25,2.1c-0.23-0.13-0.31-0.54-0.24-0.9c0.03-0.17,0.1-0.33,0.2-0.44
			c0.02-0.03,0.04-0.04,0.05-0.05c0.01-0.02,0.03-0.03,0.05-0.04c0.01-0.01,0.02-0.02,0.03-0.02c0.02-0.01,0.04-0.02,0.06-0.03
			c0.05-0.03,0.11-0.04,0.17-0.05c0.17-0.02,0.41-0.02,0.66-0.02c0.45,0.01,0.96,0.07,1.24,0.46c0.84,1.17,1.02,1.88,0.47,3.59
			c0,0,0.25-0.03,0.54-0.25c-0.13,0.78-0.74,2.29-1.5,3.56c0,0,0.17,0.06,0.49,0.04c-0.34,0.89-3.95,0.88-6.34,0.92
			c-0.5,0-0.98,0-1.46-0.01c-0.49-0.01-0.96-0.02-1.43-0.05c-0.46-0.04-0.93-0.09-1.36-0.18c-0.44-0.09-0.85-0.22-1.27-0.38
			c-0.83-0.34-1.65-0.83-2.47-1.33c-0.82-0.52-1.64-1.06-2.46-1.61c-1.62-1.1-3.25-2.21-4.86-3.32c-1.63-1.12-3.25-2.23-4.88-3.34
			c-1.63-1.1-3.28-2.21-4.98-3.25l-0.64-0.38L128,33.56l-0.33-0.18l-0.46-0.26L127.03,33l-0.66-0.35c-0.44-0.24-0.89-0.46-1.33-0.68
			c-0.22-0.11-0.44-0.22-0.67-0.33l-0.67-0.33c-1.79-0.84-3.62-1.61-5.44-2.36c-0.23-0.1-0.46-0.19-0.69-0.28l-0.69-0.28
			c-0.46-0.18-0.92-0.37-1.37-0.54l-2.75-1.08c-0.29-0.12-0.58-0.24-0.88-0.35c-1.53-0.61-3.06-1.24-4.59-1.87
			c-1.81-0.74-3.63-1.5-5.43-2.28c-1.81-0.76-3.62-1.55-5.41-2.34c-1.8-0.79-3.6-1.6-5.38-2.44c-0.44-0.21-0.88-0.41-1.31-0.63
			c-0.44-0.22-0.88-0.44-1.32-0.66c-0.44-0.22-0.87-0.45-1.31-0.67c-0.39-0.21-0.8-0.42-1.19-0.64c-3.46-2.11-7.16-4.46-9.98-6.25
			c-0.01-0.01-0.02-0.03-0.04-0.04c-0.59-0.44-1.16-0.89-1.73-1.35l0.02,0.24l-0.03-0.24c-0.95-0.76-1.85-1.55-2.73-2.39l-0.94-0.92
			l-0.08,1.31l-0.01,0.07v0.07l0,0.12c0,0.08,0,0.17,0,0.25c0,0.16,0.01,0.32,0.02,0.47c0.02,0.32,0.05,0.63,0.1,0.95
			c0.08,0.62,0.19,1.25,0.35,1.85c0.31,1.22,0.75,2.4,1.32,3.52c0.57,1.12,1.26,2.16,2.05,3.13c0.39,0.48,0.82,0.94,1.25,1.37
			c0.43,0.45,0.88,0.87,1.34,1.28c0.91,0.81,1.87,1.58,2.84,2.31c0.49,0.37,0.98,0.72,1.47,1.07c0.45,0.31,0.89,0.61,1.35,0.91
			c-0.41-0.18-0.84-0.36-1.25-0.55c-1.34-0.6-2.67-1.22-3.98-1.86c-1.31-0.65-2.62-1.32-3.87-2.04l-0.99-0.57l0.22,1.12
			c0.02,0.08,0.03,0.15,0.05,0.22l0.05,0.21c0.03,0.14,0.07,0.28,0.11,0.41c0.07,0.27,0.16,0.55,0.24,0.82
			c0.18,0.54,0.37,1.08,0.6,1.6c0.22,0.53,0.47,1.04,0.74,1.54c0.28,0.5,0.58,0.99,0.91,1.46c0.17,0.23,0.34,0.47,0.53,0.69
			c0.09,0.1,0.17,0.22,0.28,0.33l0.14,0.16l0.15,0.15c0.38,0.41,0.79,0.81,1.21,1.19c0.84,0.75,1.72,1.44,2.63,2.1
			c1.82,1.29,3.75,2.42,5.73,3.42c0.47,0.24,0.96,0.47,1.44,0.7c-0.63-0.15-1.26-0.31-1.89-0.47c-1.14-0.29-2.25-0.6-3.38-0.91
			c-1.12-0.31-2.24-0.64-3.34-0.98l-0.84-0.27l0.23,0.85l0.01,0.05l0.02,0.05l0.02,0.09c0.02,0.06,0.04,0.12,0.06,0.17
			c0.03,0.12,0.07,0.23,0.12,0.34c0.09,0.21,0.18,0.43,0.29,0.64c0.2,0.42,0.43,0.82,0.67,1.21c0.25,0.39,0.52,0.77,0.79,1.12
			c0.28,0.36,0.59,0.71,0.89,1.04c0.31,0.33,0.63,0.66,0.96,0.96c0.34,0.31,0.7,0.6,1.06,0.88c0.73,0.55,1.49,1.03,2.27,1.47
			c0.77,0.45,1.56,0.86,2.36,1.26c0.79,0.39,1.59,0.77,2.4,1.14c0.77,0.35,1.54,0.7,2.32,1.04c-0.44-0.03-0.87-0.05-1.31-0.08
			c-1.36-0.07-2.7-0.14-4.06-0.19l-0.85-0.04l0.39,0.74l0.03,0.05l0.02,0.05l0.05,0.08c0.02,0.06,0.05,0.11,0.09,0.16
			c0.07,0.1,0.13,0.2,0.21,0.3c0.13,0.2,0.28,0.39,0.43,0.57c0.3,0.37,0.62,0.71,0.95,1.04c0.68,0.65,1.42,1.22,2.2,1.74L90.89,48
			l0.3,0.18c0.2,0.12,0.39,0.24,0.59,0.36c0.4,0.22,0.81,0.44,1.24,0.64c0.84,0.39,1.72,0.7,2.59,0.98
			c0.87,0.27,1.75,0.51,2.64,0.72c0.88,0.22,1.76,0.41,2.65,0.6c0.89,0.19,1.79,0.37,2.69,0.54l-4.46,0.81l-1.06,0.2l0.84,0.67
			c1.05,0.84,2.11,1.64,3.21,2.41l0.21,0.15c0.07,0.04,0.15,0.09,0.22,0.13c0.15,0.1,0.3,0.19,0.45,0.28
			c0.3,0.17,0.61,0.33,0.93,0.47c0.62,0.28,1.27,0.52,1.91,0.72c1.3,0.39,2.62,0.68,3.94,0.88c0.67,0.11,1.32,0.19,1.98,0.26
			c-0.11,0.04-0.21,0.09-0.32,0.13c-0.72,0.31-1.44,0.62-2.16,0.96l-0.8,0.37l0.73,0.48c0.25,0.17,0.49,0.32,0.72,0.46
			c0.25,0.15,0.49,0.3,0.74,0.45c0.49,0.29,0.98,0.58,1.48,0.85c0.49,0.28,1,0.55,1.5,0.8l0.19,0.09l0.08,0.05l0.11,0.05
			c0.06,0.03,0.13,0.06,0.2,0.09l0.21,0.09c0.28,0.11,0.56,0.21,0.84,0.29c0.56,0.17,1.13,0.3,1.69,0.41
			c0.56,0.1,1.13,0.19,1.69,0.25c0.57,0.07,1.14,0.12,1.7,0.16c0.1,0.01,0.21,0.01,0.3,0.02c-0.07,0.05-0.14,0.1-0.2,0.15
			c-0.46,0.31-0.91,0.61-1.38,0.87l-0.61,0.34l0.52,0.45c0.06,0.05,0.1,0.09,0.16,0.13l0.15,0.12c0.1,0.08,0.2,0.16,0.31,0.24
			c0.21,0.15,0.41,0.31,0.63,0.44c0.43,0.29,0.88,0.54,1.35,0.78c0.23,0.12,0.47,0.22,0.72,0.32c0.13,0.04,0.25,0.09,0.38,0.13
			c0.13,0.04,0.27,0.08,0.39,0.12c0.26,0.06,0.52,0.12,0.77,0.15c0.25,0.04,0.51,0.08,0.76,0.12c1,0.13,2.01,0.23,3,0.29
			c0.55,0.04,1.09,0.08,1.63,0.11l-0.75,0.55l-0.42,0.32l0.32,0.38l0.03,0.03l0.02,0.03l0.04,0.03c0.03,0.03,0.05,0.05,0.07,0.08
			c0.05,0.05,0.1,0.09,0.15,0.13c0.09,0.09,0.2,0.17,0.3,0.25c0.21,0.15,0.43,0.28,0.65,0.4l0.17,0.08l0.17,0.08
			c0.06,0.03,0.12,0.05,0.17,0.08l0.09,0.03c0.02,0.01,0.06,0.02,0.09,0.04c0.13,0.04,0.25,0.08,0.37,0.11
			c0.12,0.03,0.23,0.06,0.35,0.09c0.46,0.11,0.91,0.21,1.37,0.29c0.46,0.09,0.92,0.17,1.38,0.23c0.92,0.14,1.84,0.24,2.77,0.31
			c0.57,0.04,1.13,0.07,1.7,0.07l-0.38,0.44l-0.38,0.45l0.51,0.28c0.09,0.05,0.19,0.1,0.27,0.15c0.09,0.05,0.18,0.1,0.26,0.14
			c0.18,0.09,0.36,0.18,0.54,0.26c0.36,0.17,0.72,0.32,1.11,0.45c0.1,0.04,0.19,0.07,0.28,0.1c0.09,0.03,0.19,0.06,0.29,0.09
			c0.19,0.05,0.4,0.11,0.6,0.15c0.42,0.09,0.83,0.13,1.23,0.15c0.81,0.02,1.6-0.03,2.38-0.11c0.04,0,0.08,0,0.12-0.01
			c0.18-0.01,0.37-0.04,0.55-0.05c0.17-0.02,0.33-0.04,0.5-0.07c0.19-0.02,0.38-0.05,0.57-0.07c0.11-0.02,0.22-0.04,0.33-0.05v6.65
			c0,1.21-0.33,5.21,3.46,10.92c0,0,0.51,0.54,0.94,0.93c0.13,0.21,0.23,0.38,0.3,0.48c0.01,0.03,0.02,0.05,0.05,0.07
			c0.01,0.02,0.02,0.04,0.03,0.06c0.02,0.03,0.03,0.04,0.03,0.04c1.76,2.53,5.53,5.31,8.59,6.3c-3.46-1.99-6.1-4.52-8.01-7.21
			c-0.1-0.14-0.19-0.28-0.29-0.42c-2.58-3.81-3.75-7.92-3.75-11.27V58.81c0.03-0.01,0.06-0.02,0.09-0.02
			c0.35-0.08,0.69-0.15,1.03-0.22c0.05-0.01,0.11-0.02,0.16-0.03c0.01,0,0.03-0.01,0.04-0.01c0.02-0.01,0.05-0.01,0.08-0.02
			c0.05-0.01,0.09-0.02,0.14-0.03c0.24-0.05,0.48-0.1,0.72-0.15c0.37-0.07,0.73-0.15,1.11-0.21c0.22-0.04,0.44-0.08,0.66-0.11
			c0.2-0.04,0.4-0.07,0.6-0.1c0.05-0.01,0.1-0.02,0.15-0.02c0.19-0.04,0.38-0.06,0.58-0.1h0.01c0.19-0.03,0.39-0.06,0.58-0.09
			c0.15-0.02,0.29-0.04,0.43-0.07c0.33-0.05,0.65-0.1,0.98-0.14h0c0.17-0.03,0.33-0.04,0.5-0.07c0.28-0.02,0.57-0.07,0.85-0.1
			c0.09-0.01,0.18-0.02,0.27-0.03c0.04,0,0.08-0.01,0.12-0.01c0.13-0.01,0.25-0.03,0.38-0.04c0.19-0.02,0.38-0.05,0.58-0.06
			c0.03-0.01,0.06-0.01,0.09-0.02c0.03,0,0.06,0,0.09,0c1.38-0.15,2.77-0.27,4.15-0.36c0.17-0.01,0.34-0.02,0.51-0.03
			c0.39-0.03,0.78-0.05,1.17-0.06c0.08-0.01,0.15-0.01,0.23-0.01c0.1-0.01,0.2-0.01,0.29-0.02c0.32-0.01,0.63-0.03,0.95-0.04
			c0.94-0.04,1.88-0.06,2.81-0.06h0.42c0.77,0,1.55,0,2.3,0.01l0.44,0.01c0.17,0,0.36,0.01,0.53,0.01c0.17,0,0.35,0,0.52,0.02
			c0.32,0.02,0.63,0.03,0.95,0.04c0.3,0.01,0.6,0.03,0.9,0.04c0.19,0.01,0.38,0.02,0.57,0.03c0.36,0.02,0.71,0.04,1.06,0.07
			c0.13,0,0.27,0.01,0.4,0.02c0.02,0,0.04,0.01,0.06,0.01c0.15,0.01,0.3,0.03,0.45,0.03c0.09,0.01,0.17,0.01,0.25,0.02h0.02
			c3.6,0.24,7.48,0.66,10.68,1.36v2.19c0,2.51,0,6.29,0.01,9.44v12.1c0,0.4-0.02,0.82-0.06,1.24c0,0.07-0.01,0.14-0.01,0.22
			c-0.01,0.08-0.01,0.16-0.02,0.24c-0.01,0.11-0.04,0.23-0.04,0.35c-0.01,0.11-0.03,0.22-0.05,0.35c-0.01,0-0.01,0.01-0.01,0.01
			c-0.02,0.12-0.03,0.23-0.06,0.35c-0.02,0.12-0.04,0.24-0.06,0.37c-0.05,0.25-0.1,0.49-0.15,0.74c-0.09,0.37-0.19,0.75-0.29,1.12
			c-0.03,0.13-0.07,0.26-0.11,0.38c-0.15,0.51-0.33,1.02-0.53,1.54c-0.05,0.11-0.09,0.23-0.14,0.33c-0.12,0.3-0.24,0.6-0.38,0.9
			c-0.06,0.12-0.11,0.23-0.17,0.35c-0.28,0.6-0.6,1.2-0.94,1.79c-0.07,0.12-0.14,0.24-0.21,0.36c-0.08,0.12-0.15,0.23-0.22,0.35
			c-0.09,0.14-0.18,0.28-0.27,0.42c-0.02,0.02-0.03,0.05-0.05,0.07c-0.11,0.15-0.21,0.3-0.31,0.45c-1.08,1.55-2.4,3.05-3.95,4.4
			c2.02-1.3,3.62-2.65,4.44-3.62c3.95-4.32,4.9-9.79,4.9-11.87v-7.08v0c0.38,0.05,0.77,0.11,1.16,0.16
			c0.15,0.01,0.31,0.03,0.47,0.05c0.03,0,0.06,0.01,0.09,0.01c0.04,0.01,0.07,0.01,0.1,0.01c0.79,0.07,1.58,0.13,2.39,0.11
			c0.41-0.02,0.83-0.05,1.25-0.15c0.21-0.04,0.41-0.1,0.6-0.15c0.1-0.03,0.19-0.06,0.28-0.09c0.1-0.03,0.2-0.06,0.29-0.1
			c0.38-0.13,0.76-0.29,1.12-0.45c0.19-0.08,0.36-0.17,0.54-0.26c0.09-0.05,0.18-0.09,0.27-0.14c0.09-0.05,0.17-0.09,0.27-0.15
			l0.52-0.28l-0.39-0.45l-0.38-0.44c0.58,0,1.15-0.03,1.71-0.07c0.94-0.07,1.87-0.17,2.79-0.31c0.46-0.07,0.92-0.14,1.39-0.23
			c0.46-0.08,0.92-0.18,1.38-0.29c0.12-0.03,0.23-0.06,0.35-0.09c0.12-0.02,0.24-0.07,0.37-0.11c0.03-0.01,0.07-0.02,0.1-0.04
			l0.08-0.03c0.06-0.03,0.12-0.05,0.17-0.08l0.18-0.08l0.16-0.08c0.22-0.12,0.44-0.25,0.65-0.4c0.11-0.08,0.21-0.16,0.31-0.25
			c0.05-0.04,0.11-0.08,0.15-0.13c0.02-0.03,0.05-0.05,0.08-0.08l0.04-0.03l0.02-0.03l0.03-0.03l0.32-0.38l-0.42-0.32l-0.76-0.55
			c0.54-0.03,1.09-0.07,1.63-0.11c1-0.06,2.01-0.15,3.03-0.29c0.25-0.04,0.51-0.07,0.77-0.12c0.25-0.04,0.51-0.09,0.76-0.15
			c0.14-0.04,0.27-0.07,0.4-0.12c0.13-0.04,0.25-0.09,0.38-0.13c0.24-0.1,0.49-0.2,0.73-0.32c0.47-0.23,0.93-0.49,1.36-0.78
			c0.22-0.14,0.43-0.29,0.63-0.44c0.1-0.08,0.21-0.15,0.32-0.24l0.16-0.12c0.05-0.05,0.1-0.08,0.16-0.13l0.52-0.45l-0.61-0.34
			c-0.47-0.26-0.93-0.56-1.39-0.87c-0.07-0.05-0.15-0.1-0.22-0.15c0.1-0.01,0.21-0.01,0.3-0.02c0.58-0.04,1.15-0.09,1.72-0.16
			c0.57-0.07,1.14-0.15,1.71-0.25c0.57-0.1,1.14-0.24,1.7-0.41c0.28-0.08,0.56-0.18,0.84-0.29l0.21-0.09
			c0.07-0.03,0.13-0.06,0.21-0.09l0.19-0.1l0.19-0.09c0.51-0.26,1.02-0.53,1.52-0.8c0.5-0.27,1-0.55,1.49-0.85
			c0.24-0.15,0.49-0.3,0.73-0.45c0.25-0.15,0.49-0.3,0.73-0.46l0.74-0.48l-0.81-0.37c-0.72-0.34-1.45-0.64-2.18-0.96
			c-0.1-0.04-0.21-0.09-0.31-0.13c0.67-0.07,1.33-0.15,1.99-0.26c1.34-0.21,2.67-0.49,3.97-0.88c0.65-0.2,1.3-0.44,1.93-0.72
			c0.31-0.14,0.63-0.3,0.93-0.47c0.15-0.08,0.3-0.17,0.45-0.28c0.08-0.04,0.16-0.09,0.22-0.13l0.21-0.15
			c1.1-0.77,2.17-1.58,3.22-2.41l0.85-0.67l-1.07-0.2l-4.5-0.81c0.9-0.17,1.8-0.35,2.7-0.54c0.89-0.18,1.79-0.38,2.67-0.6
			c0.89-0.21,1.77-0.45,2.65-0.72c0.88-0.28,1.76-0.59,2.6-0.98c0.43-0.2,0.85-0.42,1.25-0.64c0.2-0.12,0.4-0.23,0.6-0.36l0.29-0.18
			l0.3-0.19c0.79-0.51,1.54-1.08,2.22-1.74c0.34-0.33,0.66-0.68,0.96-1.04c0.15-0.18,0.29-0.37,0.44-0.57c0.07-0.1,0.13-0.2,0.2-0.3
			c0.03-0.05,0.06-0.1,0.1-0.16l0.04-0.08l0.03-0.05l0.02-0.05l0.4-0.74l-0.85,0.04c-1.37,0.05-2.73,0.12-4.09,0.19
			c-0.44,0.03-0.88,0.05-1.32,0.08c0.78-0.34,1.56-0.69,2.34-1.04c0.81-0.37,1.62-0.75,2.41-1.14c0.8-0.4,1.6-0.81,2.37-1.26
			c0.79-0.45,1.56-0.93,2.29-1.47c0.36-0.28,0.72-0.57,1.06-0.88c0.33-0.3,0.65-0.63,0.96-0.96c0.31-0.33,0.61-0.68,0.89-1.04
			c0.29-0.36,0.55-0.73,0.8-1.12c0.25-0.38,0.48-0.79,0.68-1.21c0.1-0.21,0.2-0.43,0.29-0.64c0.04-0.11,0.08-0.22,0.12-0.34
			c0.02-0.05,0.04-0.11,0.05-0.17l0.04-0.09l0.01-0.05l0.01-0.05l0.23-0.85l-0.85,0.27c-1.11,0.35-2.24,0.67-3.36,0.98
			c-1.13,0.31-2.27,0.62-3.4,0.91c-0.64,0.16-1.27,0.32-1.91,0.47c0.49-0.22,0.97-0.46,1.45-0.7c2-1.01,3.94-2.13,5.77-3.42
			c0.91-0.66,1.81-1.35,2.65-2.1c0.42-0.38,0.83-0.77,1.22-1.19l0.15-0.15l0.14-0.16c0.11-0.1,0.19-0.22,0.29-0.33
			c0.18-0.22,0.36-0.46,0.52-0.69c0.33-0.47,0.64-0.96,0.92-1.46c0.27-0.5,0.53-1.01,0.75-1.54c0.22-0.52,0.42-1.05,0.6-1.6
			c0.09-0.27,0.17-0.55,0.25-0.82c0.04-0.14,0.08-0.27,0.11-0.41l0.05-0.21c0.02-0.07,0.03-0.14,0.05-0.22l0.22-1.12l-0.99,0.57
			c-1.26,0.72-2.57,1.39-3.9,2.04c-1.32,0.64-2.66,1.26-4.01,1.86c-0.42,0.19-0.84,0.37-1.26,0.55c0.46-0.3,0.9-0.6,1.36-0.91
			c0.49-0.35,0.99-0.7,1.48-1.07c0.98-0.73,1.93-1.5,2.86-2.31c0.46-0.41,0.91-0.83,1.35-1.28c0.44-0.43,0.86-0.89,1.26-1.37
			c0.79-0.97,1.49-2.01,2.06-3.13c0.57-1.11,1.02-2.29,1.33-3.52c0.15-0.6,0.27-1.23,0.35-1.85c0.05-0.31,0.07-0.63,0.09-0.95
			c0.01-0.15,0.02-0.31,0.02-0.47c0-0.08,0-0.16,0-0.25L266.58,5.38z M182.55,53.89c0,0,0.36-1.21-0.23-1.77
			c1.16,0.17,2.13,1.33,1.81,3.13c-1.83,0.01-3.63-0.64-4.11-2.63C180.03,52.62,181.07,52.97,182.55,53.89 M187.74,52.93
			c2,0.08,3.18,1.4,2.22,3.91c-0.57-0.47-4.3,0.03-4.75-3.42c2.06,0.31,2.46,0.77,3.33,1.82C188.6,54.79,188.56,53.7,187.74,52.93
			 M118.6,37.06c-2.27,0.51-8.82-0.45-10.35-5.79c0,0,5.59,0.8,8.63,1.79c-0.92,0.87-2.91,0.09-4.38,0.32
			C112.49,33.38,117.32,35.98,118.6,37.06 M119.15,38.69c0.08,0.59-3.49,1.17-3.49,1.17c3.49,0.95,6.03,2.41,6.18,2.92
			c-4.82,0.23-8.47-1.15-10.21-3.88C114.76,38.29,119.15,38.69,119.15,38.69 M124.06,37.65c-1.47,0.6-3.34-2.38-3.34-2.38
			c1.54-0.09,3.13,0.91,3.13,0.91c-0.53,0.26-1.15,0.44-1.15,0.44C123.09,37.14,124.06,37.65,124.06,37.65 M127.68,41.09
			c-2.14,1.37-4.54-0.5-5.36-1.29c0.65-0.18,1.55-0.62,2.25-0.75c0.7-0.14,0.91,0.2,0.82,0.46c-0.08,0.22-0.28,0.56-0.28,0.56
			C126.02,40.54,127.68,41.09,127.68,41.09 M131.44,45.13c-1.66,1.06-4.77,0.17-5.91-0.95c1.31-0.61,1.63-1.41,3.35-1.72
			c0.79,0.49-0.06,1.68-1.21,1.94C128.84,44.91,130.93,43.77,131.44,45.13 M135.78,49.3c-1.71,1.1-5.23,0.37-6.65-1.16
			c1.39-0.03,2.14-2.04,4.37-1.78c0.94,0.85-0.25,2.25-1.59,2.25C132.75,49.34,134.88,47.92,135.78,49.3 M141.95,52.71
			c-2.35,1.58-6.18,2.25-8.7-0.35c1.64,0,2.96-2.25,4.46-2.35c1.32,0.38,0.4,2.51-1.47,2.7C137.7,53.26,140.49,51.4,141.95,52.71
			 M122.82,44.19c0,0,0.17,1.31-2.6,2.01c0,0,5.95,0.58,7.01,2.53c-1.45,0.13-7.42,0.64-11.13-3.12
			C117.84,44.91,120.8,43.97,122.82,44.19 M128.63,50.25c0,0,0.29,1.52-1.86,2.3c1.34,0.08,4.04,0.56,6.37,2.1
			c-3.24,0.62-7.45,0-11.05-2.85C123.26,51.27,126.36,50.2,128.63,50.25 M134.33,55.48c0,0,0.58,1.15-0.7,1.83
			c0,0,4.32-0.04,5.6,0.92c-1.72,0.8-6.04,1.41-9.47-0.62C129.75,57.61,131.52,56.02,134.33,55.48 M140.78,58.81
			c0,0,0.55,1.11,0,2.18c0,0,3.2-0.31,4.19,0c-1.21,1.16-5.24,2.28-8.37,0.44C136.6,61.43,138.41,59.73,140.78,58.81 M138.96,56.6
			c1.44-0.28,2.06-2.08,3.94-2.66c0.98,0.78-0.66,2.48-0.66,2.48c1.36,0.03,3.29-1.09,4.6-0.37
			C145.35,57.59,141.79,58.37,138.96,56.6 M143.91,53.03c0,0,0.76-0.66,1.59-1.23l-0.09,0.87c0,0,1.82,0.35,2.54,0.37
			C147.95,53.03,144.92,53.66,143.91,53.03 M153.36,56.2c0,0-2.34,0.77-4.53-0.25c0,0,0.87-1.89,3.83-2.3l-1.31,1.64
			C151.35,55.28,151.69,55.68,153.36,56.2 M159.47,54.97c0,0-3.2,1.01-4.89,0.47c0,0,1.23-1.71,2.3-2.43c0,0,0.07,0.79-0.26,1.66
			C156.62,54.67,158.43,55.01,159.47,54.97 M163.82,54.12c1.29-0.39,1.8-1.24,1.8-1.24c0.02,0.58,0.53,1.32,0.53,1.32
			C165.33,54.48,164.02,54.39,163.82,54.12 M175.32,52.47c1.35,0.15,2.34,0.98,2.34,0.98c0.16-0.76,1.02-0.8,1.02-0.8
			c0.17,0.87,0.41,1.34,1.04,1.97C177.45,54.99,175.81,53.73,175.32,52.47L175.32,52.47z M169.8,51.53
			c-0.15,0.77-0.6,2.18-2.13,2.49c-1.07-1.04-1-2.12-0.72-3.05c0.9-0.28,1.45-0.97,1.45-0.97C168.77,50.83,169.8,51.53,169.8,51.53
			 M166.97,43.25c0.93,1.1,1.49,1.17,1.49,1.17c0.48-0.06,0.88-0.58,0.88-0.58c0.35,0.98,0.25,2.28-0.94,2.57
			C166.69,45.13,166.85,44.27,166.97,43.25 M166.3,46.25c0.57,0.99,1.55,1.27,1.55,1.27c-0.1,0.44,0.08,1.25,0.08,1.25
			c-0.43,0.64-1.31,0.61-1.31,0.61C165.36,48.04,166.3,46.25,166.3,46.25 M165.46,49.47c0.16,0.88,0.5,1.28,0.5,1.28
			c-0.35,1.09-1.01,1.72-1.69,1.73c-0.95-1.11-0.29-3-0.29-3C164.27,49.67,165.46,49.47,165.46,49.47 M162.55,40.54
			c0.63,0.2,1.21,1.13,1.25,1.31c-0.28-0.14-0.75-0.28-0.75-0.28s-0.34,0.72-0.54,0.89C162.63,41.93,162.62,40.75,162.55,40.54
			 M163.16,43.56c0.4,0.53,0.43,1.27,0.43,1.27c-0.3-0.33-0.43-0.23-0.43-0.23s-0.69,0.9-1.03,1.03
			C162.71,44.88,163.16,43.56,163.16,43.56 M159.06,38.28c-0.3,0-0.6,0.01-0.9,0.05c-0.17,0.04-0.31,0.1-0.35,0.27
			c-0.05,0.16-0.05,0.37-0.05,0.56c-0.05-0.19-0.11-0.38-0.09-0.6c0.01-0.1,0.06-0.22,0.15-0.29c0.09-0.08,0.2-0.12,0.29-0.16
			c0.19-0.04,0.37-0.07,0.56-0.09c0.47-0.05,0.93-0.07,1.34-0.07c0.85,0,1.51,0.15,1.67,0.18c-0.2,0.17-0.01,0.36,0.13,0.6
			c0.13,0.21,0.28,0.44,0.3,0.46C161.22,38.56,160.57,38.31,159.06,38.28 M162.72,46.51c0.18,0.61-0.22,1.48-0.22,1.48
			c-0.01-0.23-0.18-0.64-0.18-0.64s-0.63,0.38-1.22,0.45C162.04,47.27,162.72,46.51,162.72,46.51 M161.33,51.07L161,52.74
			c0,0,1.23,0.2,1.63,0.17c0,0-1.79,1.42-3.63,0.82C159.01,53.72,160.76,51.71,161.33,51.07 M113.35,60.9
			c2.07-1.29,6.54-3.08,8.89-3.98c-1.97-0.53-4.54,0.73-9.56,0.35c-3.39-0.19-6.81-1.09-9.65-3.32c2.51-0.02,9.78-1.05,13.19-1.55
			c-2.29-1.29-5.9-1.15-9.18-1.54h-0.01c-7.51-0.62-13.25-2.93-15.67-5.79c4.33,0.35,14.53,0.34,18.61,0.32
			c-2.12-1.22-4.13-1.31-7.98-1.99c-0.01,0-0.02,0-0.02,0c-8.77-1.34-15.07-3.45-18.66-9.02c3.08,0.81,13.8,2.6,18.48,3.09
			c-13.71-3.49-21.49-10.4-23.66-14.4c0.27,0.11,8.69,3.61,19.21,5.88c-1.28-0.51-2.99-1.25-5.27-2.32
			c-7.01-3.26-14.54-8.51-17.05-15.83c0.15,0.1,4.84,3.49,9.21,5.83c4.44,2.39,9.42,5.23,23.01,10.53
			c7.52,2.8,17.76,5.89,23.96,10.03c-0.54,0-1.36,0-1.36,0c3.53,2.11,6.42,3.34,6.42,3.34c-0.53,0.13-1.21,0.14-1.21,0.14
			s2.73,1.94,4.98,2.52c-0.34,0.18-0.97,0.39-0.97,0.39c2.3,1.59,5.04,2.44,5.04,2.44c-0.53,0.21-0.98,0.34-0.98,0.34
			c3.2,1.62,3.3,1.44,5.19,1.92c-0.47,0.2-1.29,0.51-1.29,0.51c3.63,0.74,6.66,0.36,6.66,0.36L152.45,50c0.03,0,0.06,0,0.09,0
			c0.09,0,0.19,0,0.27,0c2.07-0.1,3.82-0.23,5.18-0.46h0.01c0.79-0.13,1.45-0.28,1.95-0.48c0.12-0.05,0.24-0.1,0.34-0.15
			c-0.29,0.36-0.9,0.98-1.96,1.63c0,0-0.15,0.11-0.38,0.25c-1.43,0.77-4.98,1.26-4.98,1.26c0.77-0.67,1.09-1.01,1.21-1.19
			c-2.09,0.63-6.07,0.97-6.01,0.93c0.04-0.04,1.16-0.86,1.7-1.25c-1.91,0.13-4.15,0.15-6.02-0.05c0,0,1.14-0.55,1.5-1.2
			c0,0-3.69-0.08-5.93-1.15c0,0,1.38-0.34,2.4-1.23c-2.31-0.11-6.02-1.46-7.24-2.61c0,0,1.31,0,2.25-0.53c0,0-4.89-0.88-6.84-2.93
			c0,0,1.95,0.26,3.05-0.03c0,0-5.52-1.73-7.41-3.41c0,0,1.17,0.04,2.56,0.05c-3.44-2.94-12.18-5.64-23.97-10.17
			c0.48,0.78,1.02,1.78,0.97,2.26c-1.08-1.69-4.46-3.54-8.88-5.43c-0.48-0.2-0.97-0.4-1.46-0.61c-0.02,0-0.03-0.01-0.04-0.02
			c-3.55-1.51-7.28-3.17-11.13-5.06c0.05,0.12,1.81,3.74,11.23,7.86c5.26,2.3,8.14,3.16,11.38,8.49c-0.11-0.07-2.39-1.77-6.24-2.92
			c-3.38-1-7.42-1.58-13.9-3.64c2.9,2.07,7.41,3.79,11.51,5.33c0.54,0.2,1.06,0.4,1.57,0.59c4.64,1.67,7.34,2.08,9.49,6.42
			c-2.48-0.4-8.86-1.53-9.05-1.57c-3.59-0.58-7.71-1.48-10.45-1.99c4.75,3.47,13.49,3.9,17.26,4.76c0.53,0.13,1.02,0.27,1.45,0.42
			c3.89,1.13,5.04,4.31,5.79,5.25c-2.6-0.72-4.66,0.08-7.33,0.11h-0.01c-1.64,0.08-3.64,0.03-5.96-0.11
			c3.48,1.7,10.53,1.21,14.32,2.25l0.01,0c0,0,0.01,0,0.02,0c0.14,0.04,0.27,0.08,0.41,0.13c1.57,0.52,2.79,1.46,3.63,2.27
			c0.83,0.81,1.27,1.48,1.27,1.48c-2.29,0.29-3.87,0.83-5.33,1.11c0,0-0.01,0-0.02,0.01c-1.03,0.22-2.33,0.45-3.99,0.66
			c3.62,0.61,6.5-0.05,8.34-0.23c0.47-0.04,0.89-0.05,1.28-0.02c0,0,0,0,0,0c0.04,0,0.07,0,0.1,0c0.05,0,0.08,0,0.11,0.01
			c0.11,0.01,0.23,0.03,0.33,0.03c0.01,0.01,0.03,0.01,0.04,0.01c3.06,0.41,4.62,2.66,4.62,2.66c-1.15,0.24-3.39,1.76-4.47,2.26
			h-0.01c-0.97,0.5-1.83,0.8-2.3,0.94c3.1,0.11,6.29-1.36,8.2-1.46c2.42-0.13,3.41,0.24,4.49,0.56
			C122.68,64.19,117.11,63.23,113.35,60.9 M122.09,66.57c2.51-1.97,10.53-5.35,10.53-5.35c0.25,0.41,0.53,1.31-0.08,1.84
			c-1.49,1.3-4.53,2.67-5.29,2.97c2.88-0.19,5.72-1.86,7.48-2.14c2.24-0.37,3.19-0.12,4.23,0.09
			C131.2,68.64,125.81,68.36,122.09,66.57 M132.08,70.49c1.36-1.64,8.42-5.7,8.42-5.7c0.36,2-3.76,4.92-3.76,4.92
			c2.01,0.25,4.33-2.19,6.13-1.11C140.22,71.22,137.98,72.08,132.08,70.49 M141.41,73.34c0,0,3.21-3.01,4.72-5.25
			c0.07,1.41-0.37,2.61-2.03,4.21c0,0,2.01,0.09,2.23,0.96C145.45,74.07,143.93,74.38,141.41,73.34 M143.87,64.51
			c0,0,1.13-2.06,2.7-2.09c0,0-0.16,1.02-0.92,1.79c0,0,0.79,0.25,1.49,0.58C147.14,64.79,145.48,65.19,143.87,64.51 M189.77,59.91
			c0.83,0.15,1.45,0.37,1.84,0.7c1.49,1.31,3.3,2.36,4.13,2.6c-2.42,1.54-4.26,1.67-5.67,1.54c1.67-0.58,2.33-1.37,2.33-1.37
			C190.64,62.63,189.85,61.14,189.77,59.91 M195,50.34c1.74-1.25,5.29-0.88,6.19-0.23c0.43-1.79-1.16-2.66-1.16-2.66l0.01-0.01
			c1.49-1.4,4.9-1.53,5.84-1.02c0.18-1.75-1.46-2.38-1.46-2.38s2.77-1.73,5.96-1.88c0,0,0.12-1.16-0.57-1.58
			c1.62-1.76,5.75-2.28,5.75-2.28c-0.57-0.94-1.32-1.27-1.94-1.32c2.32-0.49,3.54-0.34,4.43,0.9c-0.63,0.13-2.15,3.13-6.99,2.81
			c1.18,0.41,1.65,1.74,1.29,3.04c-1.36-0.42-3.39,0.72-6.09,0.47c1,0.44,1.81,1.47,1.76,3.12c-0.99-0.34-3.55,1.42-6.04,0.59
			c0.95,0.61,1.57,1.77,1.31,3.43c-1.06-0.53-4.44,1.26-7-0.67c0.29,0.25,1.52,1.48,1.3,4.24c-1.5-0.34-5.47,0.96-7.08-1.97
			c1.35-0.59,3.83-0.88,5.15,0.4C195.64,53.37,196.06,51.61,195,50.34 M221.49,39.16c0.29-0.03,0.6-0.04,0.91-0.07
			c0.51-0.04,1.16-0.07,1.87-0.17c0.32-0.06,0.66-0.11,1.05-0.19c0.66-0.15,1.34-0.36,1.99-0.68c-2.57,5.77-8,5.84-13.24,6.3
			c0,0,4.84-2.65,7.54-2.92c0,0-1.82-0.61-6.41-0.12l0.02-0.01c1.46-0.54,3.55-1.25,4.85-3.67c0.99-1.88,6.08-3.58,7.1-3.9
			c0,0-4.41-0.19-11.97,2.3c3.58-1.95,10.58-3.94,16.01-5.61c-1.19,3.53-2.88,5.04-5.75,6.16c-0.02,0.04-0.21,0.11-0.67,0.25
			c-0.01,0-0.01,0-0.02,0c-0.33,0.12-0.67,0.24-1.03,0.35c-2.83,1.01-3.64,1.98-3.64,1.98C220.62,39.17,221.07,39.16,221.49,39.16
			 M216.58,52.12c-1.55,1.37-3.28,1.95-4.98,2.07c-2.44,0.24-6.32-0.74-6.5-0.77c3.29,1.5,5.09,3.82,5.09,3.82
			c-5.46,2.99-9.42,1.14-12.23-0.96c1.04-0.47,5.44-0.85,7.29,0.06c-0.08-0.12-1.61-2.04-5.17-2.96c0,0,0.28,0.04,0.7,0.04
			c1.78,0.1,3.11-0.88,5.07-1.29c0.02-0.01,0.03-0.01,0.05-0.01c0.33-0.08,0.67-0.12,1.04-0.15c0.04-0.01,0.07-0.01,0.12-0.01h0.06
			c1.12-0.08,2.53-0.02,4.08,0.26c0,0-3.47-1.89-5.67-2.47c0,0,0.05,0,0.12,0.01h0.17c1.83-0.01,4.38-1.85,7.86-2.35h0.01
			c1.28-0.27,2.64-0.45,3.83-0.47c0,0-2.71-1.08-6.5-0.88c1.11-0.12,2.27-1,2.27-1s7.62,0.1,9.54,0.29
			c-1.51,2.33-3.75,3.35-5.99,3.74c-1.26,0.25-2.99,0.31-4.38,0.31c-1.3,0-2.29-0.05-2.29-0.05
			C213.32,50.12,216.16,51.64,216.58,52.12 M193.28,56.34c1.77,0.39,3.2,0.23,3.2,0.23c2.31,1.82,6.55,3.85,6.55,3.85
			c-2.58,1.63-6.81,2.61-10.8-0.69c1.16-0.29,4.17-0.35,5.73,0.36C197.16,58.13,195.4,57.29,193.28,56.34 M190.59,73.25
			c0.22-0.87,2.23-0.96,2.23-0.96c-1.65-1.59-2.1-2.8-2.02-4.21c1.51,2.24,4.71,5.25,4.71,5.25
			C192.99,74.38,191.47,74.07,190.59,73.25 M194.04,68.6c1.8-1.08,4.13,1.35,6.13,1.11c0,0-4.12-2.92-3.76-4.92
			c0,0,7.07,4.06,8.42,5.7C198.94,72.08,196.69,71.22,194.04,68.6 M197.96,63.99c1.04-0.21,1.99-0.46,4.23-0.09
			c1.76,0.28,4.6,1.95,7.48,2.14c-0.76-0.3-3.8-1.67-5.29-2.97c-0.61-0.53-0.33-1.43-0.08-1.84c0,0,8.01,3.38,10.52,5.35
			C211.1,68.36,205.71,68.64,197.96,63.99 M244.84,26.62c-2.29,1.07-4.01,1.81-5.28,2.32c10.52-2.27,18.95-5.77,19.21-5.88
			c-2.16,3.99-9.95,10.91-23.66,14.4c4.68-0.48,15.4-2.28,18.48-3.09c-3.59,5.58-9.88,7.68-18.66,9.02c0,0-0.01,0-0.02,0
			c-3.86,0.68-5.87,0.77-7.99,1.99c4.08,0.02,14.29,0.03,18.61-0.32c-2.42,2.87-8.16,5.18-15.66,5.79h-0.02
			c-3.28,0.38-6.88,0.25-9.17,1.54c3.41,0.5,10.68,1.53,13.18,1.55c-2.82,2.23-6.25,3.13-9.64,3.32c-5.02,0.38-7.58-0.88-9.56-0.35
			c2.35,0.9,6.82,2.69,8.88,3.98c-3.75,2.33-9.32,3.29-18.08-0.8c1.09-0.32,2.07-0.7,4.49-0.56c1.91,0.1,5.1,1.57,8.19,1.46
			c-0.46-0.14-1.33-0.44-2.3-0.94h-0.01c-1.08-0.5-3.31-2.02-4.47-2.26c0,0,1.56-2.25,4.62-2.66c0.02,0,0.03,0,0.04-0.01
			c0.11,0,0.22-0.02,0.33-0.03c0.04-0.01,0.07-0.01,0.11-0.01c0.03,0,0.06,0,0.09,0c0,0,0,0,0,0c0.39-0.03,0.81-0.02,1.27,0.02
			c1.85,0.19,4.73,0.84,8.34,0.23c-1.65-0.22-2.96-0.44-3.99-0.66c0-0.01-0.02-0.01-0.02-0.01c-1.46-0.28-3.03-0.82-5.34-1.11
			c0,0,1.78-2.71,4.91-3.75c0.13-0.05,0.27-0.08,0.41-0.13c0.01,0,0.02,0,0.02,0l0,0c1.89-0.52,4.61-0.66,7.28-0.88
			c2.67-0.22,5.3-0.52,7.04-1.37c-2.32,0.14-4.31,0.19-5.95,0.11h-0.02c-2.66-0.04-4.73-0.83-7.33-0.11
			c0.74-0.94,1.9-4.12,5.79-5.25c0.43-0.16,0.92-0.3,1.45-0.42c3.77-0.86,12.51-1.29,17.26-4.76c-2.74,0.52-6.86,1.42-10.45,1.99
			c-0.19,0.04-6.58,1.17-9.05,1.57c2.15-4.34,4.84-4.74,9.49-6.42c0.5-0.19,1.03-0.39,1.56-0.59c4.1-1.54,8.61-3.26,11.51-5.33
			c-6.48,2.06-10.52,2.64-13.89,3.64c-3.85,1.15-6.14,2.84-6.25,2.92c3.24-5.33,6.12-6.18,11.38-8.49
			c9.41-4.13,11.16-7.75,11.21-7.86c-5.45,3.19-10.71,5.74-18.59,8.57c0,0,0.29-0.3,0.3-1.09c-2.13,1.26-4.34,2.15-6.46,2.94
			c-6.51,2.45-15.56,5.31-19.53,8.71c2.08,0.21,2.51,0.14,2.51,0.14c-1.49,1.71-7.59,3.12-7.59,3.12c1.92,0.36,3.22,0.42,3.22,0.42
			c-0.94,0.98-2.58,1.6-4.04,1.98h0c-1.86,0.43-2.88,0.55-2.88,0.55c0.95,0.52,2.25,0.53,2.25,0.53c-1.22,1.15-4.92,2.5-7.24,2.61
			c1.02,0.89,2.4,1.23,2.4,1.23c-2.25,1.07-5.93,1.15-5.93,1.15c0.36,0.64,1.5,1.2,1.5,1.2c-1.87,0.21-4.53,0.13-6.44,0
			c0.54,0.39,2.08,1.27,2.12,1.3c-2.45-0.17-4.89-0.17-7.08-2.96c0.38,0.08,0.85,0.19,1.39,0.31c0.03,0.01,0.04,0.01,0.06,0.01
			c2.26,0.34,5.06,0.18,6.25-0.24c0,0-1.01-0.21-1.55-0.77c2.29-0.41,3.53-0.65,5.87-1.78c0,0-0.75-0.1-1.37-0.42
			c0,0,3.77-1.34,5.72-2.52c0,0-0.96,0.01-1.47-0.29c3.28-1.26,5.44-2.56,5.44-2.56s-0.99-0.05-1.48-0.16c0,0,3.24-1.11,6.76-3.22
			c0,0-1.17-0.01-1.71-0.01c6.81-4.51,16.47-7.24,23.99-10.03c13.59-5.29,18.58-8.14,23.01-10.53c4.37-2.35,9.06-5.73,9.21-5.83
			C259.38,18.11,251.85,23.36,244.84,26.62"/>
	</g>
</g>
</svg>
